<?xml version="1.0" encoding="UTF-8"?>
<svg width="47px" height="40px" viewBox="0 0 47 40" version="1.1" xmlns="http://www.w3.org/2000/svg" xmlns:xlink="http://www.w3.org/1999/xlink">
    <!-- Generator: Sketch 54.1 (76490) - https://sketchapp.com -->
    <title>Icons/Bugle</title>
    <desc>Created with Sketch.</desc>
    <g id="Icons/Bugle" stroke="none" stroke-width="1" fill="none" fill-rule="evenodd">
        <path d="M29.3338569,9.70176076 L5.11122734,14.313905 C4.46367266,14.4240887 3.99145108,14.9942421 4.00011774,15.6571175 L4.00011774,23.1338864 C3.9914373,23.7967618 4.46367266,24.3669107 5.11122734,24.4770989 L9.82143894,25.7748213 L9.82317672,30.6560558 C9.80928785,31.0163457 9.94643877,31.3643765 10.199914,31.6197212 C10.4516514,31.8733243 10.798891,32.0114916 11.1564905,31.9992504 L22.7120304,31.9992504 C23.0679321,32.0114916 23.4151405,31.8733243 23.6686068,31.6197212 C23.9203443,31.3643721 24.0574952,31.0163054 24.0453441,30.6560558 L24.0453441,28.1934994 L29.3333369,29.0889745 L29.3333369,30.7907352 L32,30.7907352 L32,8 L29.3333369,8 L29.3338569,9.70176076 Z M21.9250968,29.7564815 L12.9250968,29.7564815 L12.9250968,26.7564815 L21.9250968,28.2335543 L21.9250968,29.7564815 Z M35.7709656,18.285471 L42.7709656,18.285471 L42.7709656,21.285471 L35.7709656,21.285471 L35.7709656,18.285471 Z M34.9389397,13.6821241 L40.7725395,10.0358242 L41.9389397,12.3895242 L36.1053399,16.0358242 L34.9389397,13.6821241 Z M35.2435622,26.2793152 L36.4107622,23.924928 L42.2435622,27.5705408 L41.0763622,29.924928 L35.2435622,26.2793152 Z" id="Fill-1" fill="#FF9900" transform="translate(23.385483, 20.000000) rotate(-29.000000) translate(-23.385483, -20.000000) "></path>
    </g>
</svg>