<?xml version="1.0" encoding="UTF-8"?>
<svg width="1200px" height="742px" viewBox="0 0 1200 742" version="1.1" xmlns="http://www.w3.org/2000/svg" xmlns:xlink="http://www.w3.org/1999/xlink">
    <!-- Generator: Sketch 54.1 (76490) - https://sketchapp.com -->
    <title>Artboard</title>
    <desc>Created with Sketch.</desc>
    <defs>
        <filter x="-0.3%" y="-0.7%" width="100.6%" height="101.6%" filterUnits="objectBoundingBox" id="filter-1">
            <feOffset dx="0" dy="0" in="SourceAlpha" result="shadowOffsetOuter1"></feOffset>
            <feGaussianBlur stdDeviation="0.5" in="shadowOffsetOuter1" result="shadowBlurOuter1"></feGaussianBlur>
            <feColorMatrix values="0 0 0 0 0   0 0 0 0 0   0 0 0 0 0  0 0 0 0.5 0" type="matrix" in="shadowBlurOuter1" result="shadowMatrixOuter1"></feColorMatrix>
            <feMerge>
                <feMergeNode in="shadowMatrixOuter1"></feMergeNode>
                <feMergeNode in="SourceGraphic"></feMergeNode>
            </feMerge>
        </filter>
    </defs>
    <g id="Artboard" stroke="none" stroke-width="1" fill="none" fill-rule="evenodd">
        <rect fill="#FF9900" x="0" y="0" width="1200" height="742"></rect>
        <g id="worldmap(2)" filter="url(#filter-1)" transform="translate(123.000000, 181.000000)" fill-rule="nonzero">
            <path d="M0,65.8415842 L7.5270936,65.8415842 L7.5270936,73.3663366 L0,73.3663366 L0,65.8415842 Z M0,82.7722772 L7.5270936,82.7722772 L7.5270936,90.2970297 L0,90.2970297 L0,82.7722772 Z M16.9359606,65.8415842 L24.4630542,65.8415842 L24.4630542,73.3663366 L16.9359606,73.3663366 L16.9359606,65.8415842 Z M16.9359606,82.7722772 L24.4630542,82.7722772 L24.4630542,90.2970297 L16.9359606,90.2970297 L16.9359606,82.7722772 Z M16.9359606,98.7623762 L24.4630542,98.7623762 L24.4630542,106.287129 L16.9359606,106.287129 L16.9359606,98.7623762 Z M32.9310345,65.8415842 L40.4581281,65.8415842 L40.4581281,73.3663366 L32.9310345,73.3663366 L32.9310345,65.8415842 Z M32.9310345,82.7722772 L40.4581281,82.7722772 L40.4581281,90.2970297 L32.9310345,90.2970297 L32.9310345,82.7722772 Z M49.8669951,65.8415842 L57.3940887,65.8415842 L57.3940887,73.3663366 L49.8669951,73.3663366 L49.8669951,65.8415842 Z M49.8669951,82.7722772 L57.3940887,82.7722772 L57.3940887,90.2970297 L49.8669951,90.2970297 L49.8669951,82.7722772 Z M32.9310345,98.7623762 L40.4581281,98.7623762 L40.4581281,106.287129 L32.9310345,106.287129 L32.9310345,98.7623762 Z M65.862069,65.8415842 L73.3891626,65.8415842 L73.3891626,73.3663366 L65.862069,73.3663366 L65.862069,65.8415842 Z M65.862069,82.7722772 L73.3891626,82.7722772 L73.3891626,90.2970297 L65.862069,90.2970297 L65.862069,82.7722772 Z M65.862069,98.7623762 L73.3891626,98.7623762 L73.3891626,106.287129 L65.862069,106.287129 L65.862069,98.7623762 Z M82.7980296,65.8415842 L90.3251232,65.8415842 L90.3251232,73.3663366 L82.7980296,73.3663366 L82.7980296,65.8415842 Z M82.7980296,82.7722772 L90.3251232,82.7722772 L90.3251232,90.2970297 L82.7980296,90.2970297 L82.7980296,82.7722772 Z M82.7980296,98.7623762 L90.3251232,98.7623762 L90.3251232,106.287129 L82.7980296,106.287129 L82.7980296,98.7623762 Z M82.7980296,115.693069 L90.3251232,115.693069 L90.3251232,123.217822 L82.7980296,123.217822 L82.7980296,115.693069 Z M82.7980296,131.683168 L90.3251232,131.683168 L90.3251232,139.207921 L82.7980296,139.207921 L82.7980296,131.683168 Z M98.7931034,32.9207921 L106.320197,32.9207921 L106.320197,40.4455446 L98.7931034,40.4455446 L98.7931034,32.9207921 Z M98.7931034,49.8514851 L106.320197,49.8514851 L106.320197,57.3762376 L98.7931034,57.3762376 L98.7931034,49.8514851 Z M98.7931034,65.8415842 L106.320197,65.8415842 L106.320197,73.3663366 L98.7931034,73.3663366 L98.7931034,65.8415842 Z M98.7931034,82.7722772 L106.320197,82.7722772 L106.320197,90.2970297 L98.7931034,90.2970297 L98.7931034,82.7722772 Z M98.7931034,98.7623762 L106.320197,98.7623762 L106.320197,106.287129 L98.7931034,106.287129 L98.7931034,98.7623762 Z M98.7931034,115.693069 L106.320197,115.693069 L106.320197,123.217822 L98.7931034,123.217822 L98.7931034,115.693069 Z M98.7931034,131.683168 L106.320197,131.683168 L106.320197,139.207921 L98.7931034,139.207921 L98.7931034,131.683168 Z M98.7931034,148.613861 L106.320197,148.613861 L106.320197,156.138614 L98.7931034,156.138614 L98.7931034,148.613861 Z M98.7931034,164.60396 L106.320197,164.60396 L106.320197,172.128713 L98.7931034,172.128713 L98.7931034,164.60396 Z M115.729064,32.9207921 L123.256158,32.9207921 L123.256158,40.4455446 L115.729064,40.4455446 L115.729064,32.9207921 Z M131.724138,16.9306931 L139.251232,16.9306931 L139.251232,24.4554455 L131.724138,24.4554455 L131.724138,16.9306931 Z M115.729064,49.8514851 L123.256158,49.8514851 L123.256158,57.3762376 L115.729064,57.3762376 L115.729064,49.8514851 Z M115.729064,65.8415842 L123.256158,65.8415842 L123.256158,73.3663366 L115.729064,73.3663366 L115.729064,65.8415842 Z M115.729064,82.7722772 L123.256158,82.7722772 L123.256158,90.2970297 L115.729064,90.2970297 L115.729064,82.7722772 Z M115.729064,98.7623762 L123.256158,98.7623762 L123.256158,106.287129 L115.729064,106.287129 L115.729064,98.7623762 Z M115.729064,115.693069 L123.256158,115.693069 L123.256158,123.217822 L115.729064,123.217822 L115.729064,115.693069 Z M115.729064,131.683168 L123.256158,131.683168 L123.256158,139.207921 L115.729064,139.207921 L115.729064,131.683168 Z M115.729064,148.613861 L123.256158,148.613861 L123.256158,156.138614 L115.729064,156.138614 L115.729064,148.613861 Z M115.729064,164.60396 L123.256158,164.60396 L123.256158,172.128713 L115.729064,172.128713 L115.729064,164.60396 Z M115.729064,181.534653 L123.256158,181.534653 L123.256158,189.059406 L115.729064,189.059406 L115.729064,181.534653 Z M131.724138,49.8514851 L139.251232,49.8514851 L139.251232,57.3762376 L131.724138,57.3762376 L131.724138,49.8514851 Z M131.724138,65.8415842 L139.251232,65.8415842 L139.251232,73.3663366 L131.724138,73.3663366 L131.724138,65.8415842 Z M131.724138,82.7722772 L139.251232,82.7722772 L139.251232,90.2970297 L131.724138,90.2970297 L131.724138,82.7722772 Z M131.724138,98.7623762 L139.251232,98.7623762 L139.251232,106.287129 L131.724138,106.287129 L131.724138,98.7623762 Z M131.724138,115.693069 L139.251232,115.693069 L139.251232,123.217822 L131.724138,123.217822 L131.724138,115.693069 Z M131.724138,131.683168 L139.251232,131.683168 L139.251232,139.207921 L131.724138,139.207921 L131.724138,131.683168 Z M131.724138,148.613861 L139.251232,148.613861 L139.251232,156.138614 L131.724138,156.138614 L131.724138,148.613861 Z M131.724138,164.60396 L139.251232,164.60396 L139.251232,172.128713 L131.724138,172.128713 L131.724138,164.60396 Z M131.724138,181.534653 L139.251232,181.534653 L139.251232,189.059406 L131.724138,189.059406 L131.724138,181.534653 Z M131.724138,197.524752 L139.251232,197.524752 L139.251232,205.049505 L131.724138,205.049505 L131.724138,197.524752 Z M148.660099,16.9306931 L156.187192,16.9306931 L156.187192,24.4554455 L148.660099,24.4554455 L148.660099,16.9306931 Z M148.660099,32.9207921 L156.187192,32.9207921 L156.187192,40.4455446 L148.660099,40.4455446 L148.660099,32.9207921 Z M148.660099,49.8514851 L156.187192,49.8514851 L156.187192,57.3762376 L148.660099,57.3762376 L148.660099,49.8514851 Z M164.655172,49.8514851 L172.182266,49.8514851 L172.182266,57.3762376 L164.655172,57.3762376 L164.655172,49.8514851 Z M181.591133,49.8514851 L189.118227,49.8514851 L189.118227,57.3762376 L181.591133,57.3762376 L181.591133,49.8514851 Z M148.660099,65.8415842 L156.187192,65.8415842 L156.187192,73.3663366 L148.660099,73.3663366 L148.660099,65.8415842 Z M148.660099,115.693069 L156.187192,115.693069 L156.187192,123.217822 L148.660099,123.217822 L148.660099,115.693069 Z M148.660099,131.683168 L156.187192,131.683168 L156.187192,139.207921 L148.660099,139.207921 L148.660099,131.683168 Z M148.660099,148.613861 L156.187192,148.613861 L156.187192,156.138614 L148.660099,156.138614 L148.660099,148.613861 Z M148.660099,164.60396 L156.187192,164.60396 L156.187192,172.128713 L148.660099,172.128713 L148.660099,164.60396 Z M164.655172,115.693069 L172.182266,115.693069 L172.182266,123.217822 L164.655172,123.217822 L164.655172,115.693069 Z M164.655172,131.683168 L172.182266,131.683168 L172.182266,139.207921 L164.655172,139.207921 L164.655172,131.683168 Z M164.655172,148.613861 L172.182266,148.613861 L172.182266,156.138614 L164.655172,156.138614 L164.655172,148.613861 Z M164.655172,164.60396 L172.182266,164.60396 L172.182266,172.128713 L164.655172,172.128713 L164.655172,164.60396 Z M164.655172,214.455446 L172.182266,214.455446 L172.182266,221.980198 L164.655172,221.980198 L164.655172,214.455446 Z M181.591133,214.455446 L189.118227,214.455446 L189.118227,221.980198 L181.591133,221.980198 L181.591133,214.455446 Z M197.586207,214.455446 L205.1133,214.455446 L205.1133,221.980198 L197.586207,221.980198 L197.586207,214.455446 Z M214.522167,214.455446 L222.049261,214.455446 L222.049261,221.980198 L214.522167,221.980198 L214.522167,214.455446 Z M181.591133,230.445545 L189.118227,230.445545 L189.118227,237.970297 L181.591133,237.970297 L181.591133,230.445545 Z M197.586207,230.445545 L205.1133,230.445545 L205.1133,237.970297 L197.586207,237.970297 L197.586207,230.445545 Z M214.522167,230.445545 L222.049261,230.445545 L222.049261,237.970297 L214.522167,237.970297 L214.522167,230.445545 Z M231.458128,230.445545 L238.985222,230.445545 L238.985222,237.970297 L231.458128,237.970297 L231.458128,230.445545 Z M181.591133,247.376238 L189.118227,247.376238 L189.118227,254.90099 L181.591133,254.90099 L181.591133,247.376238 Z M197.586207,247.376238 L205.1133,247.376238 L205.1133,254.90099 L197.586207,254.90099 L197.586207,247.376238 Z M214.522167,247.376238 L222.049261,247.376238 L222.049261,254.90099 L214.522167,254.90099 L214.522167,247.376238 Z M231.458128,247.376238 L238.985222,247.376238 L238.985222,254.90099 L231.458128,254.90099 L231.458128,247.376238 Z M247.453202,247.376238 L254.980296,247.376238 L254.980296,254.90099 L247.453202,254.90099 L247.453202,247.376238 Z M181.591133,264.306931 L189.118227,264.306931 L189.118227,271.831683 L181.591133,271.831683 L181.591133,264.306931 Z M197.586207,264.306931 L205.1133,264.306931 L205.1133,271.831683 L197.586207,271.831683 L197.586207,264.306931 Z M214.522167,264.306931 L222.049261,264.306931 L222.049261,271.831683 L214.522167,271.831683 L214.522167,264.306931 Z M231.458128,264.306931 L238.985222,264.306931 L238.985222,271.831683 L231.458128,271.831683 L231.458128,264.306931 Z M197.586207,281.237624 L205.1133,281.237624 L205.1133,288.762376 L197.586207,288.762376 L197.586207,281.237624 Z M214.522167,281.237624 L222.049261,281.237624 L222.049261,288.762376 L214.522167,288.762376 L214.522167,281.237624 Z M231.458128,281.237624 L238.985222,281.237624 L238.985222,288.762376 L231.458128,288.762376 L231.458128,281.237624 Z M197.586207,298.168317 L205.1133,298.168317 L205.1133,305.693069 L197.586207,305.693069 L197.586207,298.168317 Z M214.522167,298.168317 L222.049261,298.168317 L222.049261,305.693069 L214.522167,305.693069 L214.522167,298.168317 Z M197.586207,314.158416 L205.1133,314.158416 L205.1133,321.683168 L197.586207,321.683168 L197.586207,314.158416 Z M197.586207,331.089109 L205.1133,331.089109 L205.1133,338.613861 L197.586207,338.613861 L197.586207,331.089109 Z M197.586207,347.079208 L205.1133,347.079208 L205.1133,354.60396 L197.586207,354.60396 L197.586207,347.079208 Z M214.522167,364.009901 L222.049261,364.009901 L222.049261,371.534653 L214.522167,371.534653 L214.522167,364.009901 Z M214.522167,314.158416 L222.049261,314.158416 L222.049261,321.683168 L214.522167,321.683168 L214.522167,314.158416 Z M231.458128,298.168317 L238.985222,298.168317 L238.985222,305.693069 L231.458128,305.693069 L231.458128,298.168317 Z M247.453202,264.306931 L254.980296,264.306931 L254.980296,271.831683 L247.453202,271.831683 L247.453202,264.306931 Z M181.591133,98.7623762 L189.118227,98.7623762 L189.118227,106.287129 L181.591133,106.287129 L181.591133,98.7623762 Z M181.591133,115.693069 L189.118227,115.693069 L189.118227,123.217822 L181.591133,123.217822 L181.591133,115.693069 Z M181.591133,65.8415842 L189.118227,65.8415842 L189.118227,73.3663366 L181.591133,73.3663366 L181.591133,65.8415842 Z M181.591133,82.7722772 L189.118227,82.7722772 L189.118227,90.2970297 L181.591133,90.2970297 L181.591133,82.7722772 Z M181.591133,131.683168 L189.118227,131.683168 L189.118227,139.207921 L181.591133,139.207921 L181.591133,131.683168 Z M197.586207,98.7623762 L205.1133,98.7623762 L205.1133,106.287129 L197.586207,106.287129 L197.586207,98.7623762 Z M197.586207,115.693069 L205.1133,115.693069 L205.1133,123.217822 L197.586207,123.217822 L197.586207,115.693069 Z M197.586207,65.8415842 L205.1133,65.8415842 L205.1133,73.3663366 L197.586207,73.3663366 L197.586207,65.8415842 Z M197.586207,82.7722772 L205.1133,82.7722772 L205.1133,90.2970297 L197.586207,90.2970297 L197.586207,82.7722772 Z M197.586207,131.683168 L205.1133,131.683168 L205.1133,139.207921 L197.586207,139.207921 L197.586207,131.683168 Z M214.522167,115.693069 L222.049261,115.693069 L222.049261,123.217822 L214.522167,123.217822 L214.522167,115.693069 Z M214.522167,131.683168 L222.049261,131.683168 L222.049261,139.207921 L214.522167,139.207921 L214.522167,131.683168 Z M181.591133,148.613861 L189.118227,148.613861 L189.118227,156.138614 L181.591133,156.138614 L181.591133,148.613861 Z M148.660099,197.524752 L156.187192,197.524752 L156.187192,205.049505 L148.660099,205.049505 L148.660099,197.524752 Z M164.655172,0 L172.182266,0 L172.182266,7.52475248 L164.655172,7.52475248 L164.655172,0 Z M164.655172,16.9306931 L172.182266,16.9306931 L172.182266,24.4554455 L164.655172,24.4554455 L164.655172,16.9306931 Z M181.591133,0 L189.118227,0 L189.118227,7.52475248 L181.591133,7.52475248 L181.591133,0 Z M181.591133,16.9306931 L189.118227,16.9306931 L189.118227,24.4554455 L181.591133,24.4554455 L181.591133,16.9306931 Z M197.586207,16.9306931 L205.1133,16.9306931 L205.1133,24.4554455 L197.586207,24.4554455 L197.586207,16.9306931 Z M214.522167,16.9306931 L222.049261,16.9306931 L222.049261,24.4554455 L214.522167,24.4554455 L214.522167,16.9306931 Z M214.522167,32.9207921 L222.049261,32.9207921 L222.049261,40.4455446 L214.522167,40.4455446 L214.522167,32.9207921 Z M231.458128,16.9306931 L238.985222,16.9306931 L238.985222,24.4554455 L231.458128,24.4554455 L231.458128,16.9306931 Z M247.453202,16.9306931 L254.980296,16.9306931 L254.980296,24.4554455 L247.453202,24.4554455 L247.453202,16.9306931 Z M264.389163,16.9306931 L271.916256,16.9306931 L271.916256,24.4554455 L264.389163,24.4554455 L264.389163,16.9306931 Z M281.325123,16.9306931 L288.852217,16.9306931 L288.852217,24.4554455 L281.325123,24.4554455 L281.325123,16.9306931 Z M297.320197,16.9306931 L304.847291,16.9306931 L304.847291,24.4554455 L297.320197,24.4554455 L297.320197,16.9306931 Z M370.70936,16.9306931 L378.236453,16.9306931 L378.236453,24.4554455 L370.70936,24.4554455 L370.70936,16.9306931 Z M387.64532,16.9306931 L395.172414,16.9306931 L395.172414,24.4554455 L387.64532,24.4554455 L387.64532,16.9306931 Z M231.458128,32.9207921 L238.985222,32.9207921 L238.985222,40.4455446 L231.458128,40.4455446 L231.458128,32.9207921 Z M247.453202,32.9207921 L254.980296,32.9207921 L254.980296,40.4455446 L247.453202,40.4455446 L247.453202,32.9207921 Z M264.389163,32.9207921 L271.916256,32.9207921 L271.916256,40.4455446 L264.389163,40.4455446 L264.389163,32.9207921 Z M281.325123,32.9207921 L288.852217,32.9207921 L288.852217,40.4455446 L281.325123,40.4455446 L281.325123,32.9207921 Z M231.458128,49.8514851 L238.985222,49.8514851 L238.985222,57.3762376 L231.458128,57.3762376 L231.458128,49.8514851 Z M247.453202,49.8514851 L254.980296,49.8514851 L254.980296,57.3762376 L247.453202,57.3762376 L247.453202,49.8514851 Z M231.458128,65.8415842 L238.985222,65.8415842 L238.985222,73.3663366 L231.458128,73.3663366 L231.458128,65.8415842 Z M247.453202,65.8415842 L254.980296,65.8415842 L254.980296,73.3663366 L247.453202,73.3663366 L247.453202,65.8415842 Z M247.453202,82.7722772 L254.980296,82.7722772 L254.980296,90.2970297 L247.453202,90.2970297 L247.453202,82.7722772 Z M264.389163,49.8514851 L271.916256,49.8514851 L271.916256,57.3762376 L264.389163,57.3762376 L264.389163,49.8514851 Z M281.325123,49.8514851 L288.852217,49.8514851 L288.852217,57.3762376 L281.325123,57.3762376 L281.325123,49.8514851 Z M297.320197,32.9207921 L304.847291,32.9207921 L304.847291,40.4455446 L297.320197,40.4455446 L297.320197,32.9207921 Z M322.724138,115.693069 L330.251232,115.693069 L330.251232,123.217822 L322.724138,123.217822 L322.724138,115.693069 Z M322.724138,181.534653 L330.251232,181.534653 L330.251232,189.059406 L322.724138,189.059406 L322.724138,181.534653 Z M322.724138,197.524752 L330.251232,197.524752 L330.251232,205.049505 L322.724138,205.049505 L322.724138,197.524752 Z M322.724138,214.455446 L330.251232,214.455446 L330.251232,221.980198 L322.724138,221.980198 L322.724138,214.455446 Z M338.719212,181.534653 L346.246305,181.534653 L346.246305,189.059406 L338.719212,189.059406 L338.719212,181.534653 Z M338.719212,197.524752 L346.246305,197.524752 L346.246305,205.049505 L338.719212,205.049505 L338.719212,197.524752 Z M338.719212,214.455446 L346.246305,214.455446 L346.246305,221.980198 L338.719212,221.980198 L338.719212,214.455446 Z M355.655172,181.534653 L363.182266,181.534653 L363.182266,189.059406 L355.655172,189.059406 L355.655172,181.534653 Z M355.655172,197.524752 L363.182266,197.524752 L363.182266,205.049505 L355.655172,205.049505 L355.655172,197.524752 Z M355.655172,214.455446 L363.182266,214.455446 L363.182266,221.980198 L355.655172,221.980198 L355.655172,214.455446 Z M370.70936,181.534653 L378.236453,181.534653 L378.236453,189.059406 L370.70936,189.059406 L370.70936,181.534653 Z M338.719212,164.60396 L346.246305,164.60396 L346.246305,172.128713 L338.719212,172.128713 L338.719212,164.60396 Z M355.655172,164.60396 L363.182266,164.60396 L363.182266,172.128713 L355.655172,172.128713 L355.655172,164.60396 Z M355.655172,131.683168 L363.182266,131.683168 L363.182266,139.207921 L355.655172,139.207921 L355.655172,131.683168 Z M355.655172,115.693069 L363.182266,115.693069 L363.182266,123.217822 L355.655172,123.217822 L355.655172,115.693069 Z M370.70936,164.60396 L378.236453,164.60396 L378.236453,172.128713 L370.70936,172.128713 L370.70936,164.60396 Z M370.70936,197.524752 L378.236453,197.524752 L378.236453,205.049505 L370.70936,205.049505 L370.70936,197.524752 Z M370.70936,214.455446 L378.236453,214.455446 L378.236453,221.980198 L370.70936,221.980198 L370.70936,214.455446 Z M370.70936,247.376238 L378.236453,247.376238 L378.236453,254.90099 L370.70936,254.90099 L370.70936,247.376238 Z M370.70936,230.445545 L378.236453,230.445545 L378.236453,237.970297 L370.70936,237.970297 L370.70936,230.445545 Z M370.70936,264.306931 L378.236453,264.306931 L378.236453,271.831683 L370.70936,271.831683 L370.70936,264.306931 Z M387.64532,181.534653 L395.172414,181.534653 L395.172414,189.059406 L387.64532,189.059406 L387.64532,181.534653 Z M387.64532,164.60396 L395.172414,164.60396 L395.172414,172.128713 L387.64532,172.128713 L387.64532,164.60396 Z M387.64532,197.524752 L395.172414,197.524752 L395.172414,205.049505 L387.64532,205.049505 L387.64532,197.524752 Z M387.64532,214.455446 L395.172414,214.455446 L395.172414,221.980198 L387.64532,221.980198 L387.64532,214.455446 Z M387.64532,247.376238 L395.172414,247.376238 L395.172414,254.90099 L387.64532,254.90099 L387.64532,247.376238 Z M387.64532,230.445545 L395.172414,230.445545 L395.172414,237.970297 L387.64532,237.970297 L387.64532,230.445545 Z M387.64532,264.306931 L395.172414,264.306931 L395.172414,271.831683 L387.64532,271.831683 L387.64532,264.306931 Z M403.640394,181.534653 L411.167488,181.534653 L411.167488,189.059406 L403.640394,189.059406 L403.640394,181.534653 Z M403.640394,197.524752 L411.167488,197.524752 L411.167488,205.049505 L403.640394,205.049505 L403.640394,197.524752 Z M403.640394,214.455446 L411.167488,214.455446 L411.167488,221.980198 L403.640394,221.980198 L403.640394,214.455446 Z M403.640394,247.376238 L411.167488,247.376238 L411.167488,254.90099 L403.640394,254.90099 L403.640394,247.376238 Z M403.640394,230.445545 L411.167488,230.445545 L411.167488,237.970297 L403.640394,237.970297 L403.640394,230.445545 Z M420.576355,214.455446 L428.103448,214.455446 L428.103448,221.980198 L420.576355,221.980198 L420.576355,214.455446 Z M437.512315,214.455446 L445.039409,214.455446 L445.039409,221.980198 L437.512315,221.980198 L437.512315,214.455446 Z M420.576355,247.376238 L428.103448,247.376238 L428.103448,254.90099 L420.576355,254.90099 L420.576355,247.376238 Z M420.576355,230.445545 L428.103448,230.445545 L428.103448,237.970297 L420.576355,237.970297 L420.576355,230.445545 Z M403.640394,264.306931 L411.167488,264.306931 L411.167488,271.831683 L403.640394,271.831683 L403.640394,264.306931 Z M437.512315,281.237624 L445.039409,281.237624 L445.039409,288.762376 L437.512315,288.762376 L437.512315,281.237624 Z M437.512315,298.168317 L445.039409,298.168317 L445.039409,305.693069 L437.512315,305.693069 L437.512315,298.168317 Z M387.64532,281.237624 L395.172414,281.237624 L395.172414,288.762376 L387.64532,288.762376 L387.64532,281.237624 Z M387.64532,298.168317 L395.172414,298.168317 L395.172414,305.693069 L387.64532,305.693069 L387.64532,298.168317 Z M370.70936,65.8415842 L378.236453,65.8415842 L378.236453,73.3663366 L370.70936,73.3663366 L370.70936,65.8415842 Z M370.70936,82.7722772 L378.236453,82.7722772 L378.236453,90.2970297 L370.70936,90.2970297 L370.70936,82.7722772 Z M370.70936,115.693069 L378.236453,115.693069 L378.236453,123.217822 L370.70936,123.217822 L370.70936,115.693069 Z M370.70936,98.7623762 L378.236453,98.7623762 L378.236453,106.287129 L370.70936,106.287129 L370.70936,98.7623762 Z M370.70936,131.683168 L378.236453,131.683168 L378.236453,139.207921 L370.70936,139.207921 L370.70936,131.683168 Z M387.64532,65.8415842 L395.172414,65.8415842 L395.172414,73.3663366 L387.64532,73.3663366 L387.64532,65.8415842 Z M387.64532,82.7722772 L395.172414,82.7722772 L395.172414,90.2970297 L387.64532,90.2970297 L387.64532,82.7722772 Z M387.64532,115.693069 L395.172414,115.693069 L395.172414,123.217822 L387.64532,123.217822 L387.64532,115.693069 Z M387.64532,98.7623762 L395.172414,98.7623762 L395.172414,106.287129 L387.64532,106.287129 L387.64532,98.7623762 Z M403.640394,65.8415842 L411.167488,65.8415842 L411.167488,73.3663366 L403.640394,73.3663366 L403.640394,65.8415842 Z M403.640394,82.7722772 L411.167488,82.7722772 L411.167488,90.2970297 L403.640394,90.2970297 L403.640394,82.7722772 Z M403.640394,115.693069 L411.167488,115.693069 L411.167488,123.217822 L403.640394,123.217822 L403.640394,115.693069 Z M403.640394,98.7623762 L411.167488,98.7623762 L411.167488,106.287129 L403.640394,106.287129 L403.640394,98.7623762 Z M420.576355,65.8415842 L428.103448,65.8415842 L428.103448,73.3663366 L420.576355,73.3663366 L420.576355,65.8415842 Z M420.576355,82.7722772 L428.103448,82.7722772 L428.103448,90.2970297 L420.576355,90.2970297 L420.576355,82.7722772 Z M420.576355,115.693069 L428.103448,115.693069 L428.103448,123.217822 L420.576355,123.217822 L420.576355,115.693069 Z M437.512315,131.683168 L445.039409,131.683168 L445.039409,139.207921 L437.512315,139.207921 L437.512315,131.683168 Z M420.576355,98.7623762 L428.103448,98.7623762 L428.103448,106.287129 L420.576355,106.287129 L420.576355,98.7623762 Z M437.512315,65.8415842 L445.039409,65.8415842 L445.039409,73.3663366 L437.512315,73.3663366 L437.512315,65.8415842 Z M437.512315,82.7722772 L445.039409,82.7722772 L445.039409,90.2970297 L437.512315,90.2970297 L437.512315,82.7722772 Z M437.512315,115.693069 L445.039409,115.693069 L445.039409,123.217822 L437.512315,123.217822 L437.512315,115.693069 Z M437.512315,98.7623762 L445.039409,98.7623762 L445.039409,106.287129 L437.512315,106.287129 L437.512315,98.7623762 Z M453.507389,65.8415842 L461.034483,65.8415842 L461.034483,73.3663366 L453.507389,73.3663366 L453.507389,65.8415842 Z M453.507389,82.7722772 L461.034483,82.7722772 L461.034483,90.2970297 L453.507389,90.2970297 L453.507389,82.7722772 Z M453.507389,115.693069 L461.034483,115.693069 L461.034483,123.217822 L453.507389,123.217822 L453.507389,115.693069 Z M453.507389,98.7623762 L461.034483,98.7623762 L461.034483,106.287129 L453.507389,106.287129 L453.507389,98.7623762 Z M470.44335,65.8415842 L477.970443,65.8415842 L477.970443,73.3663366 L470.44335,73.3663366 L470.44335,65.8415842 Z M470.44335,82.7722772 L477.970443,82.7722772 L477.970443,90.2970297 L470.44335,90.2970297 L470.44335,82.7722772 Z M470.44335,115.693069 L477.970443,115.693069 L477.970443,123.217822 L470.44335,123.217822 L470.44335,115.693069 Z M470.44335,98.7623762 L477.970443,98.7623762 L477.970443,106.287129 L470.44335,106.287129 L470.44335,98.7623762 Z M486.438424,65.8415842 L493.965517,65.8415842 L493.965517,73.3663366 L486.438424,73.3663366 L486.438424,65.8415842 Z M486.438424,82.7722772 L493.965517,82.7722772 L493.965517,90.2970297 L486.438424,90.2970297 L486.438424,82.7722772 Z M486.438424,115.693069 L493.965517,115.693069 L493.965517,123.217822 L486.438424,123.217822 L486.438424,115.693069 Z M486.438424,98.7623762 L493.965517,98.7623762 L493.965517,106.287129 L486.438424,106.287129 L486.438424,98.7623762 Z M503.374384,65.8415842 L510.901478,65.8415842 L510.901478,73.3663366 L503.374384,73.3663366 L503.374384,65.8415842 Z M503.374384,82.7722772 L510.901478,82.7722772 L510.901478,90.2970297 L503.374384,90.2970297 L503.374384,82.7722772 Z M503.374384,115.693069 L510.901478,115.693069 L510.901478,123.217822 L503.374384,123.217822 L503.374384,115.693069 Z M503.374384,98.7623762 L510.901478,98.7623762 L510.901478,106.287129 L503.374384,106.287129 L503.374384,98.7623762 Z M519.369458,65.8415842 L526.896552,65.8415842 L526.896552,73.3663366 L519.369458,73.3663366 L519.369458,65.8415842 Z M519.369458,82.7722772 L526.896552,82.7722772 L526.896552,90.2970297 L519.369458,90.2970297 L519.369458,82.7722772 Z M519.369458,115.693069 L526.896552,115.693069 L526.896552,123.217822 L519.369458,123.217822 L519.369458,115.693069 Z M519.369458,98.7623762 L526.896552,98.7623762 L526.896552,106.287129 L519.369458,106.287129 L519.369458,98.7623762 Z M536.305419,65.8415842 L543.832512,65.8415842 L543.832512,73.3663366 L536.305419,73.3663366 L536.305419,65.8415842 Z M536.305419,82.7722772 L543.832512,82.7722772 L543.832512,90.2970297 L536.305419,90.2970297 L536.305419,82.7722772 Z M536.305419,115.693069 L543.832512,115.693069 L543.832512,123.217822 L536.305419,123.217822 L536.305419,115.693069 Z M536.305419,98.7623762 L543.832512,98.7623762 L543.832512,106.287129 L536.305419,106.287129 L536.305419,98.7623762 Z M552.300493,65.8415842 L559.827586,65.8415842 L559.827586,73.3663366 L552.300493,73.3663366 L552.300493,65.8415842 Z M552.300493,82.7722772 L559.827586,82.7722772 L559.827586,90.2970297 L552.300493,90.2970297 L552.300493,82.7722772 Z M552.300493,115.693069 L559.827586,115.693069 L559.827586,123.217822 L552.300493,123.217822 L552.300493,115.693069 Z M552.300493,98.7623762 L559.827586,98.7623762 L559.827586,106.287129 L552.300493,106.287129 L552.300493,98.7623762 Z M569.236453,65.8415842 L576.763547,65.8415842 L576.763547,73.3663366 L569.236453,73.3663366 L569.236453,65.8415842 Z M569.236453,82.7722772 L576.763547,82.7722772 L576.763547,90.2970297 L569.236453,90.2970297 L569.236453,82.7722772 Z M569.236453,115.693069 L576.763547,115.693069 L576.763547,123.217822 L569.236453,123.217822 L569.236453,115.693069 Z M420.576355,164.60396 L428.103448,164.60396 L428.103448,172.128713 L420.576355,172.128713 L420.576355,164.60396 Z M437.512315,164.60396 L445.039409,164.60396 L445.039409,172.128713 L437.512315,172.128713 L437.512315,164.60396 Z M453.507389,164.60396 L461.034483,164.60396 L461.034483,172.128713 L453.507389,172.128713 L453.507389,164.60396 Z M470.44335,164.60396 L477.970443,164.60396 L477.970443,172.128713 L470.44335,172.128713 L470.44335,164.60396 Z M486.438424,164.60396 L493.965517,164.60396 L493.965517,172.128713 L486.438424,172.128713 L486.438424,164.60396 Z M503.374384,164.60396 L510.901478,164.60396 L510.901478,172.128713 L503.374384,172.128713 L503.374384,164.60396 Z M519.369458,164.60396 L526.896552,164.60396 L526.896552,172.128713 L519.369458,172.128713 L519.369458,164.60396 Z M536.305419,164.60396 L543.832512,164.60396 L543.832512,172.128713 L536.305419,172.128713 L536.305419,164.60396 Z M552.300493,164.60396 L559.827586,164.60396 L559.827586,172.128713 L552.300493,172.128713 L552.300493,164.60396 Z M569.236453,164.60396 L576.763547,164.60396 L576.763547,172.128713 L569.236453,172.128713 L569.236453,164.60396 Z M437.512315,181.534653 L445.039409,181.534653 L445.039409,189.059406 L437.512315,189.059406 L437.512315,181.534653 Z M453.507389,181.534653 L461.034483,181.534653 L461.034483,189.059406 L453.507389,189.059406 L453.507389,181.534653 Z M470.44335,181.534653 L477.970443,181.534653 L477.970443,189.059406 L470.44335,189.059406 L470.44335,181.534653 Z M486.438424,181.534653 L493.965517,181.534653 L493.965517,189.059406 L486.438424,189.059406 L486.438424,181.534653 Z M503.374384,181.534653 L510.901478,181.534653 L510.901478,189.059406 L503.374384,189.059406 L503.374384,181.534653 Z M503.374384,197.524752 L510.901478,197.524752 L510.901478,205.049505 L503.374384,205.049505 L503.374384,197.524752 Z M503.374384,214.455446 L510.901478,214.455446 L510.901478,221.980198 L503.374384,221.980198 L503.374384,214.455446 Z M519.369458,181.534653 L526.896552,181.534653 L526.896552,189.059406 L519.369458,189.059406 L519.369458,181.534653 Z M536.305419,181.534653 L543.832512,181.534653 L543.832512,189.059406 L536.305419,189.059406 L536.305419,181.534653 Z M552.300493,181.534653 L559.827586,181.534653 L559.827586,189.059406 L552.300493,189.059406 L552.300493,181.534653 Z M536.305419,197.524752 L543.832512,197.524752 L543.832512,205.049505 L536.305419,205.049505 L536.305419,197.524752 Z M552.300493,197.524752 L559.827586,197.524752 L559.827586,205.049505 L552.300493,205.049505 L552.300493,197.524752 Z M552.300493,214.455446 L559.827586,214.455446 L559.827586,221.980198 L552.300493,221.980198 L552.300493,214.455446 Z M552.300493,230.445545 L559.827586,230.445545 L559.827586,237.970297 L552.300493,237.970297 L552.300493,230.445545 Z M569.236453,230.445545 L576.763547,230.445545 L576.763547,237.970297 L569.236453,237.970297 L569.236453,230.445545 Z M585.231527,230.445545 L592.758621,230.445545 L592.758621,237.970297 L585.231527,237.970297 L585.231527,230.445545 Z M569.236453,247.376238 L576.763547,247.376238 L576.763547,254.90099 L569.236453,254.90099 L569.236453,247.376238 Z M585.231527,247.376238 L592.758621,247.376238 L592.758621,254.90099 L585.231527,254.90099 L585.231527,247.376238 Z M627.571429,247.376238 L635.098522,247.376238 L635.098522,254.90099 L627.571429,254.90099 L627.571429,247.376238 Z M643.566502,247.376238 L651.093596,247.376238 L651.093596,254.90099 L643.566502,254.90099 L643.566502,247.376238 Z M569.236453,181.534653 L576.763547,181.534653 L576.763547,189.059406 L569.236453,189.059406 L569.236453,181.534653 Z M569.236453,98.7623762 L576.763547,98.7623762 L576.763547,106.287129 L569.236453,106.287129 L569.236453,98.7623762 Z M585.231527,65.8415842 L592.758621,65.8415842 L592.758621,73.3663366 L585.231527,73.3663366 L585.231527,65.8415842 Z M585.231527,82.7722772 L592.758621,82.7722772 L592.758621,90.2970297 L585.231527,90.2970297 L585.231527,82.7722772 Z M585.231527,115.693069 L592.758621,115.693069 L592.758621,123.217822 L585.231527,123.217822 L585.231527,115.693069 Z M585.231527,98.7623762 L592.758621,98.7623762 L592.758621,106.287129 L585.231527,106.287129 L585.231527,98.7623762 Z M602.167488,65.8415842 L609.694581,65.8415842 L609.694581,73.3663366 L602.167488,73.3663366 L602.167488,65.8415842 Z M602.167488,82.7722772 L609.694581,82.7722772 L609.694581,90.2970297 L602.167488,90.2970297 L602.167488,82.7722772 Z M602.167488,115.693069 L609.694581,115.693069 L609.694581,123.217822 L602.167488,123.217822 L602.167488,115.693069 Z M470.44335,131.683168 L477.970443,131.683168 L477.970443,139.207921 L470.44335,139.207921 L470.44335,131.683168 Z M486.438424,131.683168 L493.965517,131.683168 L493.965517,139.207921 L486.438424,139.207921 L486.438424,131.683168 Z M503.374384,131.683168 L510.901478,131.683168 L510.901478,139.207921 L503.374384,139.207921 L503.374384,131.683168 Z M519.369458,131.683168 L526.896552,131.683168 L526.896552,139.207921 L519.369458,139.207921 L519.369458,131.683168 Z M536.305419,131.683168 L543.832512,131.683168 L543.832512,139.207921 L536.305419,139.207921 L536.305419,131.683168 Z M552.300493,131.683168 L559.827586,131.683168 L559.827586,139.207921 L552.300493,139.207921 L552.300493,131.683168 Z M569.236453,131.683168 L576.763547,131.683168 L576.763547,139.207921 L569.236453,139.207921 L569.236453,131.683168 Z M585.231527,131.683168 L592.758621,131.683168 L592.758621,139.207921 L585.231527,139.207921 L585.231527,131.683168 Z M602.167488,131.683168 L609.694581,131.683168 L609.694581,139.207921 L602.167488,139.207921 L602.167488,131.683168 Z M569.236453,281.237624 L576.763547,281.237624 L576.763547,288.762376 L569.236453,288.762376 L569.236453,281.237624 Z M585.231527,281.237624 L592.758621,281.237624 L592.758621,288.762376 L585.231527,288.762376 L585.231527,281.237624 Z M602.167488,281.237624 L609.694581,281.237624 L609.694581,288.762376 L602.167488,288.762376 L602.167488,281.237624 Z M619.103448,281.237624 L626.630542,281.237624 L626.630542,288.762376 L619.103448,288.762376 L619.103448,281.237624 Z M569.236453,298.168317 L576.763547,298.168317 L576.763547,305.693069 L569.236453,305.693069 L569.236453,298.168317 Z M585.231527,298.168317 L592.758621,298.168317 L592.758621,305.693069 L585.231527,305.693069 L585.231527,298.168317 Z M602.167488,298.168317 L609.694581,298.168317 L609.694581,305.693069 L602.167488,305.693069 L602.167488,298.168317 Z M619.103448,298.168317 L626.630542,298.168317 L626.630542,305.693069 L619.103448,305.693069 L619.103448,298.168317 Z M636.039409,281.237624 L643.566502,281.237624 L643.566502,288.762376 L636.039409,288.762376 L636.039409,281.237624 Z M636.039409,298.168317 L643.566502,298.168317 L643.566502,305.693069 L636.039409,305.693069 L636.039409,298.168317 Z M602.167488,314.158416 L609.694581,314.158416 L609.694581,321.683168 L602.167488,321.683168 L602.167488,314.158416 Z M619.103448,314.158416 L626.630542,314.158416 L626.630542,321.683168 L619.103448,321.683168 L619.103448,314.158416 Z M636.039409,314.158416 L643.566502,314.158416 L643.566502,321.683168 L636.039409,321.683168 L636.039409,314.158416 Z M652.975369,314.158416 L660.502463,314.158416 L660.502463,321.683168 L652.975369,321.683168 L652.975369,314.158416 Z M685.906404,314.158416 L693.433498,314.158416 L693.433498,321.683168 L685.906404,321.683168 L685.906404,314.158416 Z M685.906404,331.089109 L693.433498,331.089109 L693.433498,338.613861 L685.906404,338.613861 L685.906404,331.089109 Z M470.44335,148.613861 L477.970443,148.613861 L477.970443,156.138614 L470.44335,156.138614 L470.44335,148.613861 Z M486.438424,148.613861 L493.965517,148.613861 L493.965517,156.138614 L486.438424,156.138614 L486.438424,148.613861 Z M503.374384,148.613861 L510.901478,148.613861 L510.901478,156.138614 L503.374384,156.138614 L503.374384,148.613861 Z M519.369458,148.613861 L526.896552,148.613861 L526.896552,156.138614 L519.369458,156.138614 L519.369458,148.613861 Z M536.305419,148.613861 L543.832512,148.613861 L543.832512,156.138614 L536.305419,156.138614 L536.305419,148.613861 Z M552.300493,148.613861 L559.827586,148.613861 L559.827586,156.138614 L552.300493,156.138614 L552.300493,148.613861 Z M569.236453,148.613861 L576.763547,148.613861 L576.763547,156.138614 L569.236453,156.138614 L569.236453,148.613861 Z M585.231527,148.613861 L592.758621,148.613861 L592.758621,156.138614 L585.231527,156.138614 L585.231527,148.613861 Z M602.167488,98.7623762 L609.694581,98.7623762 L609.694581,106.287129 L602.167488,106.287129 L602.167488,98.7623762 Z M619.103448,65.8415842 L626.630542,65.8415842 L626.630542,73.3663366 L619.103448,73.3663366 L619.103448,65.8415842 Z M619.103448,82.7722772 L626.630542,82.7722772 L626.630542,90.2970297 L619.103448,90.2970297 L619.103448,82.7722772 Z M619.103448,115.693069 L626.630542,115.693069 L626.630542,123.217822 L619.103448,123.217822 L619.103448,115.693069 Z M619.103448,98.7623762 L626.630542,98.7623762 L626.630542,106.287129 L619.103448,106.287129 L619.103448,98.7623762 Z M636.039409,65.8415842 L643.566502,65.8415842 L643.566502,73.3663366 L636.039409,73.3663366 L636.039409,65.8415842 Z M453.507389,49.8514851 L461.034483,49.8514851 L461.034483,57.3762376 L453.507389,57.3762376 L453.507389,49.8514851 Z M470.44335,49.8514851 L477.970443,49.8514851 L477.970443,57.3762376 L470.44335,57.3762376 L470.44335,49.8514851 Z M453.507389,32.9207921 L461.034483,32.9207921 L461.034483,40.4455446 L453.507389,40.4455446 L453.507389,32.9207921 Z M470.44335,32.9207921 L477.970443,32.9207921 L477.970443,40.4455446 L470.44335,40.4455446 L470.44335,32.9207921 Z M486.438424,49.8514851 L493.965517,49.8514851 L493.965517,57.3762376 L486.438424,57.3762376 L486.438424,49.8514851 Z M503.374384,49.8514851 L510.901478,49.8514851 L510.901478,57.3762376 L503.374384,57.3762376 L503.374384,49.8514851 Z M519.369458,49.8514851 L526.896552,49.8514851 L526.896552,57.3762376 L519.369458,57.3762376 L519.369458,49.8514851 Z M536.305419,49.8514851 L543.832512,49.8514851 L543.832512,57.3762376 L536.305419,57.3762376 L536.305419,49.8514851 Z M552.300493,49.8514851 L559.827586,49.8514851 L559.827586,57.3762376 L552.300493,57.3762376 L552.300493,49.8514851 Z M519.369458,32.9207921 L526.896552,32.9207921 L526.896552,40.4455446 L519.369458,40.4455446 L519.369458,32.9207921 Z M536.305419,32.9207921 L543.832512,32.9207921 L543.832512,40.4455446 L536.305419,40.4455446 L536.305419,32.9207921 Z M536.305419,16.9306931 L543.832512,16.9306931 L543.832512,24.4554455 L536.305419,24.4554455 L536.305419,16.9306931 Z M552.300493,32.9207921 L559.827586,32.9207921 L559.827586,40.4455446 L552.300493,40.4455446 L552.300493,32.9207921 Z M569.236453,49.8514851 L576.763547,49.8514851 L576.763547,57.3762376 L569.236453,57.3762376 L569.236453,49.8514851 Z M585.231527,49.8514851 L592.758621,49.8514851 L592.758621,57.3762376 L585.231527,57.3762376 L585.231527,49.8514851 Z M602.167488,49.8514851 L609.694581,49.8514851 L609.694581,57.3762376 L602.167488,57.3762376 L602.167488,49.8514851 Z M619.103448,49.8514851 L626.630542,49.8514851 L626.630542,57.3762376 L619.103448,57.3762376 L619.103448,49.8514851 Z M636.039409,49.8514851 L643.566502,49.8514851 L643.566502,57.3762376 L636.039409,57.3762376 L636.039409,49.8514851 Z M636.039409,32.9207921 L643.566502,32.9207921 L643.566502,40.4455446 L636.039409,40.4455446 L636.039409,32.9207921 Z M636.039409,82.7722772 L643.566502,82.7722772 L643.566502,90.2970297 L636.039409,90.2970297 L636.039409,82.7722772 Z M652.975369,65.8415842 L660.502463,65.8415842 L660.502463,73.3663366 L652.975369,73.3663366 L652.975369,65.8415842 Z M652.975369,82.7722772 L660.502463,82.7722772 L660.502463,90.2970297 L652.975369,90.2970297 L652.975369,82.7722772 Z M668.970443,65.8415842 L676.497537,65.8415842 L676.497537,73.3663366 L668.970443,73.3663366 L668.970443,65.8415842 Z M668.970443,82.7722772 L676.497537,82.7722772 L676.497537,90.2970297 L668.970443,90.2970297 L668.970443,82.7722772 Z M685.906404,65.8415842 L693.433498,65.8415842 L693.433498,73.3663366 L685.906404,73.3663366 L685.906404,65.8415842 Z M701.901478,65.8415842 L709.428571,65.8415842 L709.428571,73.3663366 L701.901478,73.3663366 L701.901478,65.8415842 Z M718.837438,65.8415842 L726.364532,65.8415842 L726.364532,73.3663366 L718.837438,73.3663366 L718.837438,65.8415842 Z M685.906404,82.7722772 L693.433498,82.7722772 L693.433498,90.2970297 L685.906404,90.2970297 L685.906404,82.7722772 Z M668.970443,98.7623762 L676.497537,98.7623762 L676.497537,106.287129 L668.970443,106.287129 L668.970443,98.7623762 Z M388.586207,131.683168 L396.1133,131.683168 L396.1133,139.207921 L388.586207,139.207921 L388.586207,131.683168 Z M403.640394,148.613861 L411.167488,148.613861 L411.167488,156.138614 L403.640394,156.138614 L403.640394,148.613861 Z M420.576355,148.613861 L428.103448,148.613861 L428.103448,156.138614 L420.576355,156.138614 L420.576355,148.613861 Z M338.719212,131.683168 L346.246305,131.683168 L346.246305,139.207921 L338.719212,139.207921 L338.719212,131.683168 Z M338.719212,98.7623762 L346.246305,98.7623762 L346.246305,106.287129 L338.719212,106.287129 L338.719212,98.7623762 Z" id="Shape" fill="#EA8E05"></path>
            <g id="Group-2" transform="translate(715.073892, 140.148515)">
                <g id="np_community_73516_000000">
                    <path d="M85.0484339,49.6745703 C85.0484339,57.4258501 73.4102272,57.4258501 73.4102272,49.6745703 C73.4102272,41.9130675 85.0484339,41.9130675 85.0484339,49.6745703" id="Shape" fill="#EA8E05"></path>
                    <path d="M85.0484339,185.709741 C85.0484339,193.461021 73.4102272,193.461021 73.4102272,185.709741 C73.4102272,177.948238 85.0484339,177.948238 85.0484339,185.709741" id="Shape" fill="#EA8E05"></path>
                    <path d="M59.0862805,158.85686 C59.0862805,165.419961 49.2385671,165.419961 49.2385671,158.85686 C49.2385671,152.29376 59.0862805,152.29376 59.0862805,158.85686" id="Shape" fill="#EA8E05"></path>
                    <path d="M188.001801,34.4562768 C188.001801,41.0193771 178.154088,41.0193771 178.154088,34.4562768 C178.154088,27.8931764 188.001801,27.8931764 188.001801,34.4562768" id="Shape" fill="#EA8E05"></path>
                    <path d="M166.515881,202.706538 C166.515881,209.274659 156.668168,209.274659 156.668168,202.706538 C156.668168,196.148458 166.515881,196.148458 166.515881,202.706538" id="Shape" fill="#EA8E05"></path>
                    <path d="M91.3151606,212.554955 C91.3151606,219.118055 81.4674473,219.118055 81.4674473,212.554955 C81.4674473,205.991854 91.3151606,205.991854 91.3151606,212.554955" id="Shape" fill="#EA8E05"></path>
                    <path d="M41.1813469,80.9946246 C41.1813469,87.557725 31.3336336,87.557725 31.3336336,80.9946246 C31.3336336,74.4315243 41.1813469,74.4315243 41.1813469,80.9946246" id="Shape" fill="#EA8E05"></path>
                    <path d="M49.2385671,131.112846 C49.2385671,137.675946 39.3908536,137.675946 39.3908536,131.112846 C39.3908536,124.549745 49.2385671,124.549745 49.2385671,131.112846" id="Shape" fill="#EA8E05"></path>
                    <path d="M202.325748,113.213481 C202.325748,119.776581 192.478035,119.776581 192.478035,113.213481 C192.478035,106.65038 202.325748,106.65038 202.325748,113.213481" id="Shape" fill="#EA8E05"></path>
                    <path d="M136.972741,196.445526 C136.972741,203.008627 127.125027,203.008627 127.125027,196.445526 C127.125027,189.882426 136.972741,189.882426 136.972741,196.445526" id="Shape" fill="#EA8E05"></path>
                    <path d="M128.915521,42.5109908 C128.915521,49.0740912 119.067807,49.0740912 119.067807,42.5109908 C119.067807,35.9478905 128.915521,35.9478905 128.915521,42.5109908" id="Shape" fill="#EA8E05"></path>
                    <path d="M35.8098669,123.956933 C35.8098669,131.708213 24.1716602,131.708213 24.1716602,123.956933 C24.1716602,116.19543 35.8098669,116.19543 35.8098669,123.956933" id="Shape" fill="#EA8E05"></path>
                    <path d="M194.268528,159.747995 C194.268528,167.509498 182.630322,167.509498 182.630322,159.747995 C182.630322,151.996715 194.268528,151.996715 194.268528,159.747995" id="Shape" fill="#EA8E05"></path>
                    <path d="M67.1435005,46.985832 C67.1435005,53.5489323 57.2957871,53.5489323 57.2957871,46.985832 C57.2957871,40.4227317 67.1435005,40.4227317 67.1435005,46.985832" id="Shape" fill="#EA8E05"></path>
                    <path d="M198.744761,99.7889575 C198.744761,105.158767 190.687541,105.158767 190.687541,99.7889575 C190.687541,94.4191484 198.744761,94.4191484 198.744761,99.7889575" id="Shape" fill="#EA8E05"></path>
                    <path d="M204.116242,185.705907 C204.116242,191.075717 196.059022,191.075717 196.059022,185.705907 C196.059022,180.336098 204.116242,180.336098 204.116242,185.705907" id="Shape" fill="#EA8E05"></path>
                    <path d="M81.4674473,201.815335 C81.4674473,207.185144 73.4102272,207.185144 73.4102272,201.815335 C73.4102272,196.445526 81.4674473,196.445526 81.4674473,201.815335" id="Shape" fill="#EA8E05"></path>
                    <path d="M45.6575803,156.171956 C45.6575803,161.541765 37.6003603,161.541765 37.6003603,156.171956 C37.6003603,150.802147 45.6575803,150.802147 45.6575803,156.171956" id="Shape" fill="#EA8E05"></path>
                    <path d="M120.858301,28.1914992 C120.858301,33.5613085 112.801081,33.5613085 112.801081,28.1914992 C112.801081,22.8216898 120.858301,22.8216898 120.858301,28.1914992" id="Shape" fill="#EA8E05"></path>
                    <path d="M182.630322,46.985832 C182.630322,53.5489323 172.782608,53.5489323 172.782608,46.985832 C172.782608,40.4227317 182.630322,40.4227317 182.630322,46.985832" id="Shape" fill="#EA8E05"></path>
                    <path d="M49.2385671,118.579013 C49.2385671,125.147816 39.3908536,125.147816 39.3908536,118.579013 C39.3908536,112.021616 49.2385671,112.021616 49.2385671,118.579013" id="Shape" fill="#EA8E05"></path>
                    <path d="M109.220095,197.792068 C109.220095,210.912816 89.5246673,210.912816 89.5246673,197.792068 C89.5246673,184.660414 109.220095,184.660414 109.220095,197.792068" id="Shape" fill="#EA8E05"></path>
                    <path d="M170.096868,50.1141305 C170.096868,63.2457849 150.401441,63.2457849 150.401441,50.1141305 C150.401441,36.9933835 170.096868,36.9933835 170.096868,50.1141305" id="Shape" fill="#EA8E05"></path>
                    <path d="M53.7148003,171.386416 C53.7148003,175.562934 47.4480737,175.562934 47.4480737,171.386416 C47.4480737,167.209897 53.7148003,167.209897 53.7148003,171.386416" id="Shape" fill="#EA8E05"></path>
                    <path d="M154.877674,207.185144 C154.877674,211.361663 148.610948,211.361663 148.610948,207.185144 C148.610948,203.008627 154.877674,203.008627 154.877674,207.185144" id="Shape" fill="#EA8E05"></path>
                    <path d="M216.649695,157.066924 C216.649695,161.243443 210.382968,161.243443 210.382968,157.066924 C210.382968,152.890406 216.649695,152.890406 216.649695,157.066924" id="Shape" fill="#EA8E05"></path>
                    <path d="M216.649695,69.3600376 C216.649695,73.536556 210.382968,73.536556 210.382968,69.3600376 C210.382968,65.1835193 216.649695,65.1835193 216.649695,69.3600376" id="Shape" fill="#EA8E05"></path>
                    <path d="M162.934895,35.3549904 C162.934895,39.5265149 156.668168,39.5265149 156.668168,35.3549904 C156.668168,31.1734781 162.934895,31.1734781 162.934895,35.3549904" id="Shape" fill="#EA8E05"></path>
                    <path d="M128.915521,30.8801493 C128.915521,35.0516738 122.648795,35.0516738 122.648795,30.8801493 C122.648795,26.698637 128.915521,26.698637 128.915521,30.8801493" id="Shape" fill="#EA8E05"></path>
                    <path d="M63.5625137,66.6788784 C63.5625137,70.8504029 57.2957871,70.8504029 57.2957871,66.6788784 C57.2957871,62.4973661 63.5625137,62.4973661 63.5625137,66.6788784" id="Shape" fill="#EA8E05"></path>
                    <path d="M77.8864605,210.761273 C77.8864605,214.942784 71.6197339,214.942784 71.6197339,210.761273 C71.6197339,206.589747 77.8864605,206.589747 77.8864605,210.761273" id="Shape" fill="#EA8E05"></path>
                    <path d="M3.58098669,71.5974583 C3.58098669,73.9840402 0,73.9840402 0,71.5974583 C0,69.2108764 3.58098669,69.2108764 3.58098669,71.5974583" id="Shape" fill="#EA8E05"></path>
                    <path d="M239.926108,137.825107 C239.926108,140.211689 236.345122,140.211689 236.345122,137.825107 C236.345122,135.438525 239.926108,135.438525 239.926108,137.825107" id="Shape" fill="#EA8E05"></path>
                    <path d="M39.3908536,1.78993645 C39.3908536,4.1765184 35.8098669,4.1765184 35.8098669,1.78993645 C35.8098669,-0.596645485 39.3908536,-0.596645485 39.3908536,1.78993645" id="Shape" fill="#EA8E05"></path>
                    <path d="M37.6003603,231.796771 C37.6003603,234.183353 34.0193736,234.183353 34.0193736,231.796771 C34.0193736,229.410189 37.6003603,229.410189 37.6003603,231.796771" id="Shape" fill="#EA8E05"></path>
                    <path d="M136.077495,205.838677 C136.077495,208.230613 132.496508,208.230613 132.496508,205.838677 C132.496508,203.457449 136.077495,203.457449 136.077495,205.838677" id="Shape" fill="#EA8E05"></path>
                    <path d="M207.697228,127.97644 C207.697228,130.368377 204.116242,130.368377 204.116242,127.97644 C204.116242,125.595214 207.697228,125.595214 207.697228,127.97644" id="Shape" fill="#EA8E05"></path>
                    <path d="M138.763234,17.8993645 C138.763234,20.2859465 135.182248,20.2859465 135.182248,17.8993645 C135.182248,15.5127826 138.763234,15.5127826 138.763234,17.8993645" id="Shape" fill="#EA8E05"></path>
                    <path d="M27.7526469,137.825107 C27.7526469,140.211689 24.1716602,140.211689 24.1716602,137.825107 C24.1716602,135.438525 27.7526469,135.438525 27.7526469,137.825107" id="Shape" fill="#EA8E05"></path>
                    <path d="M68.9339938,187.939312 C68.9339938,190.331248 65.3530071,190.331248 65.3530071,187.939312 C65.3530071,185.558085 68.9339938,185.558085 68.9339938,187.939312" id="Shape" fill="#EA8E05"></path>
                    <path d="M170.096868,233.582692 C170.096868,235.974628 166.515881,235.974628 166.515881,233.582692 C166.515881,231.201464 170.096868,231.201464 170.096868,233.582692" id="Shape" fill="#EA8E05"></path>
                    <path d="M126.229781,21.4820876 C126.229781,23.8648694 122.648795,23.8648694 122.648795,21.4820876 C122.648795,19.0917055 126.229781,19.0917055 126.229781,21.4820876" id="Shape" fill="#EA8E05"></path>
                    <path d="M225.602161,173.620986 C225.602161,176.011369 222.021175,176.011369 222.021175,173.620986 C222.021175,171.238205 225.602161,171.238205 225.602161,173.620986" id="Shape" fill="#EA8E05"></path>
                    <path d="M52.8195537,178.101527 C52.8195537,180.484309 49.2385671,180.484309 49.2385671,178.101527 C49.2385671,175.711145 52.8195537,175.711145 52.8195537,178.101527" id="Shape" fill="#EA8E05"></path>
                    <path d="M42.9718403,69.8103719 C42.9718403,72.1931537 39.3908536,72.1931537 39.3908536,69.8103719 C39.3908536,67.4199898 42.9718403,67.4199898 42.9718403,69.8103719" id="Shape" fill="#EA8E05"></path>
                    <path d="M136.077495,31.3267381 C136.077495,33.7095199 132.496508,33.7095199 132.496508,31.3267381 C132.496508,28.936356 136.077495,28.936356 136.077495,31.3267381" id="Shape" fill="#EA8E05"></path>
                    <path d="M196.059022,125.298402 C196.059022,127.681184 192.478035,127.681184 192.478035,125.298402 C192.478035,122.90802 196.059022,122.90802 196.059022,125.298402" id="Shape" fill="#EA8E05"></path>
                    <path d="M55.5052937,193.315987 C55.5052937,195.698769 51.9243071,195.698769 51.9243071,193.315987 C51.9243071,190.925606 55.5052937,190.925606 55.5052937,193.315987" id="Shape" fill="#EA8E05"></path>
                    <path d="M186.211308,66.2237011 C186.211308,76.9685836 170.096868,76.9685836 170.096868,66.2237011 C170.096868,55.4893461 186.211308,55.4893461 186.211308,66.2237011" id="Shape" fill="#EA8E05"></path>
                    <path d="M79.6769539,23.7203235 C79.6769539,29.0852456 71.6197339,29.0852456 71.6197339,23.7203235 C71.6197339,18.3456268 79.6769539,18.3456268 79.6769539,23.7203235" id="Shape" fill="#EA8E05"></path>
                    <path d="M30.4383869,77.4190299 C30.4383869,81.5898441 24.1716602,81.5898441 24.1716602,77.4190299 C24.1716602,73.2368072 30.4383869,73.2368072 30.4383869,77.4190299" id="Shape" fill="#EA8E05"></path>
                    <path d="M166.515881,220.60539 C166.515881,224.787613 160.249154,224.787613 160.249154,220.60539 C160.249154,216.434576 166.515881,216.434576 166.515881,220.60539" id="Shape" fill="#EA8E05"></path>
                    <path d="M73.4102272,60.4140208 C73.4102272,65.7789429 65.3530071,65.7789429 65.3530071,60.4140208 C65.3530071,55.0393243 73.4102272,55.0393243 73.4102272,60.4140208" id="Shape" fill="#EA8E05"></path>
                    <path d="M204.116242,157.958227 C204.116242,163.332923 196.059022,163.332923 196.059022,157.958227 C196.059022,152.593305 204.116242,152.593305 204.116242,157.958227" id="Shape" fill="#EA8E05"></path>
                    <path d="M19.6954268,133.794084 C19.6954268,139.168782 11.6382068,139.168782 11.6382068,133.794084 C11.6382068,128.429162 19.6954268,128.429162 19.6954268,133.794084" id="Shape" fill="#EA8E05"></path>
                    <path d="M214.859202,87.255408 C214.859202,91.4372521 208.592475,91.4372521 208.592475,87.255408 C208.592475,83.0842153 214.859202,83.0842153 214.859202,87.255408" id="Shape" fill="#EA8E05"></path>
                    <path d="M188.897048,79.2086824 C188.897048,83.3798752 182.630322,83.3798752 182.630322,79.2086824 C182.630322,75.0268383 188.897048,75.0268383 188.897048,79.2086824" id="Shape" fill="#EA8E05"></path>
                    <path d="M210.382968,166.907581 C210.382968,171.089424 204.116242,171.089424 204.116242,166.907581 C204.116242,162.736387 210.382968,162.736387 210.382968,166.907581" id="Shape" fill="#EA8E05"></path>
                    <path d="M111.010588,226.874446 C111.010588,231.050965 104.743861,231.050965 104.743861,226.874446 C104.743861,222.697928 111.010588,222.697928 111.010588,226.874446" id="Shape" fill="#EA8E05"></path>
                    <path d="M37.6003603,137.373629 C37.6003603,141.555472 31.3336336,141.555472 31.3336336,137.373629 C31.3336336,133.202436 37.6003603,133.202436 37.6003603,137.373629" id="Shape" fill="#EA8E05"></path>
                    <path d="M63.5625137,35.351245 C63.5625137,39.5277634 57.2957871,39.5277634 57.2957871,35.351245 C57.2957871,31.1747266 63.5625137,31.1747266 63.5625137,35.351245" id="Shape" fill="#EA8E05"></path>
                    <path d="M99.372381,17.4558747 C99.372381,21.6270675 93.105654,21.6270675 93.105654,17.4558747 C93.105654,13.2740307 99.372381,13.2740307 99.372381,17.4558747" id="Shape" fill="#EA8E05"></path>
                    <path d="M194.268528,88.1543705 C194.268528,93.5241798 186.211308,93.5241798 186.211308,88.1543705 C186.211308,82.7845611 194.268528,82.7845611 194.268528,88.1543705" id="Shape" fill="#EA8E05"></path>
                    <path d="M112.801081,44.3045927 C112.801081,49.6695148 104.743861,49.6695148 104.743861,44.3045927 C104.743861,38.9298961 112.801081,38.9298961 112.801081,44.3045927" id="Shape" fill="#EA8E05"></path>
                    <path d="M32.2288802,186.600876 C32.2288802,190.777394 25.9621535,190.777394 25.9621535,186.600876 C25.9621535,182.424358 32.2288802,182.424358 32.2288802,186.600876" id="Shape" fill="#EA8E05"></path>
                    <path d="M59.9815271,78.7572041 C59.9815271,88.3035318 45.6575803,88.3035318 45.6575803,78.7572041 C45.6575803,69.2108764 59.9815271,69.2108764 59.9815271,78.7572041" id="Shape" fill="#EA8E05"></path>
                    <path d="M76.9912139,37.1411815 C76.9912139,43.7042818 67.1435005,43.7042818 67.1435005,37.1411815 C67.1435005,30.5780812 76.9912139,30.5780812 76.9912139,37.1411815" id="Shape" fill="#EA8E05"></path>
                    <path d="M130.706014,208.97116 C130.706014,215.539489 120.858301,215.539489 120.858301,208.97116 C120.858301,202.413288 130.706014,202.413288 130.706014,208.97116" id="Shape" fill="#EA8E05"></path>
                    <path d="M31.3336336,105.158767 C31.3336336,111.721867 21.4859202,111.721867 21.4859202,105.158767 C21.4859202,98.5956663 31.3336336,98.5956663 31.3336336,105.158767" id="Shape" fill="#EA8E05"></path>
                    <path d="M204.116242,80.9946246 C204.116242,87.557725 194.268528,87.557725 194.268528,80.9946246 C194.268528,74.4315243 204.116242,74.4315243 204.116242,80.9946246" id="Shape" fill="#EA8E05"></path>
                    <path d="M156.668168,195.107223 C156.668168,204.648019 142.344221,204.648019 142.344221,195.107223 C142.344221,185.555363 156.668168,185.555363 156.668168,195.107223" id="Shape" fill="#EA8E05"></path>
                    <path d="M146.820454,44.7442675 C146.820454,54.2961204 132.496508,54.2961204 132.496508,44.7442675 C132.496508,35.203465 146.820454,35.203465 146.820454,44.7442675" id="Shape" fill="#EA8E05"></path>
                    <path d="M71.6197339,173.627784 C71.6197339,184.362139 55.5052937,184.362139 55.5052937,173.627784 C55.5052937,162.882902 71.6197339,162.882902 71.6197339,173.627784" id="Shape" fill="#EA8E05"></path>
                    <path d="M206.801981,142.303896 C206.801981,153.038251 190.687541,153.038251 190.687541,142.303896 C190.687541,131.559014 206.801981,131.559014 206.801981,142.303896" id="Shape" fill="#EA8E05"></path>
                    <path d="M178.154088,187.939237 C178.154088,201.070892 158.458661,201.070892 158.458661,187.939237 C158.458661,174.81849 178.154088,174.81849 178.154088,187.939237" id="Shape" fill="#EA8E05"></path>
                    <path d="M53.7148003,100.240532 C53.7148003,113.361279 34.0193736,113.361279 34.0193736,100.240532 C34.0193736,87.1088775 53.7148003,87.1088775 53.7148003,100.240532" id="Shape" fill="#EA8E05"></path>
                    <path d="M156.668168,20.1367851 C156.668168,25.5065945 148.610948,25.5065945 148.610948,20.1367851 C148.610948,14.7669758 156.668168,14.7669758 156.668168,20.1367851" id="Shape" fill="#EA8E05"></path>
                    <path d="M120.858301,198.23931 C120.858301,203.60399 112.801081,203.60399 112.801081,198.23931 C112.801081,192.86437 120.858301,192.86437 120.858301,198.23931" id="Shape" fill="#EA8E05"></path>
                    <path d="M25.9621535,41.6198703 C25.9621535,46.9845494 17.9049334,46.9845494 17.9049334,41.6198703 C17.9049334,36.2449307 25.9621535,36.2449307 25.9621535,41.6198703" id="Shape" fill="#EA8E05"></path>
                    <path d="M91.3151606,235.820281 C91.3151606,241.19522 83.2579406,241.19522 83.2579406,235.820281 C83.2579406,230.455601 91.3151606,230.455601 91.3151606,235.820281" id="Shape" fill="#EA8E05"></path>
                    <path d="M199.640008,92.1848355 C199.640008,94.5672731 196.059022,94.5672731 196.059022,92.1848355 C196.059022,89.7941096 199.640008,89.7941096 199.640008,92.1848355" id="Shape" fill="#EA8E05"></path>
                    <path d="M188.001801,53.7012017 C188.001801,56.0836397 184.420815,56.0836397 184.420815,53.7012017 C184.420815,51.3104758 188.001801,51.3104758 188.001801,53.7012017" id="Shape" fill="#EA8E05"></path>
                    <path d="M202.325748,168.697234 C202.325748,175.266037 192.478035,175.266037 192.478035,168.697234 C192.478035,162.139836 202.325748,162.139836 202.325748,168.697234" id="Shape" fill="#EA8E05"></path>
                    <path d="M209.487722,173.623836 C209.487722,176.010419 205.906735,176.010419 205.906735,173.623836 C205.906735,171.237255 209.487722,171.237255 209.487722,173.623836" id="Shape" fill="#EA8E05"></path>
                    <path d="M225.602161,119.925743 C225.602161,122.312324 222.021175,122.312324 222.021175,119.925743 C222.021175,117.539161 225.602161,117.539161 225.602161,119.925743" id="Shape" fill="#EA8E05"></path>
                    <path d="M209.487722,147.666649 C209.487722,150.057376 205.906735,150.057376 205.906735,147.666649 C205.906735,145.284212 209.487722,145.284212 209.487722,147.666649" id="Shape" fill="#EA8E05"></path>
                    <path d="M59.0862805,55.4849222 C59.0862805,57.8756481 55.5052937,57.8756481 55.5052937,55.4849222 C55.5052937,53.1024842 59.0862805,53.1024842 59.0862805,55.4849222" id="Shape" fill="#EA8E05"></path>
                    <path d="M111.010588,5.36670143 C111.010588,7.75742729 107.4296,7.75742729 107.4296,5.36670143 C107.4296,2.98426341 111.010588,2.98426341 111.010588,5.36670143" id="Shape" fill="#EA8E05"></path>
                    <path d="M70.7244871,193.313137 C70.7244871,195.699719 67.1435005,195.699719 67.1435005,193.313137 C67.1435005,190.926556 70.7244871,190.926556 70.7244871,193.313137" id="Shape" fill="#EA8E05"></path>
                    <path d="M106.534354,217.92093 C106.534354,225.682433 94.8961474,225.682433 94.8961474,217.92093 C94.8961474,210.16965 106.534354,210.16965 106.534354,217.92093" id="Shape" fill="#EA8E05"></path>
                    <path d="M117.277314,208.080113 C117.277314,213.449922 109.220095,213.449922 109.220095,208.080113 C109.220095,202.710304 117.277314,202.710304 117.277314,208.080113" id="Shape" fill="#EA8E05"></path>
                    <path d="M114.591574,217.474171 C114.591574,219.864897 111.010588,219.864897 111.010588,217.474171 C111.010588,215.091734 114.591574,215.091734 114.591574,217.474171" id="Shape" fill="#EA8E05"></path>
                    <path d="M170.096868,223.745165 C170.096868,226.127603 166.515881,226.127603 166.515881,223.745165 C166.515881,221.354439 170.096868,221.354439 170.096868,223.745165" id="Shape" fill="#EA8E05"></path>
                    <path d="M34.9146203,111.871028 C34.9146203,114.257611 31.3336336,114.257611 31.3336336,111.871028 C31.3336336,109.484447 34.9146203,109.484447 34.9146203,111.871028" id="Shape" fill="#EA8E05"></path>
                    <path d="M204.116242,21.0274763 C204.116242,27.5962794 194.268528,27.5962794 194.268528,21.0274763 C194.268528,14.4700787 204.116242,14.4700787 204.116242,21.0274763" id="Shape" fill="#EA8E05"></path>
                    <path d="M174.573101,36.2425478 C174.573101,41.6172445 166.515881,41.6172445 166.515881,36.2425478 C166.515881,30.8776257 174.573101,30.8776257 174.573101,36.2425478" id="Shape" fill="#EA8E05"></path>
                    <path d="M189.792295,13.4245235 C189.792295,15.8111054 186.211308,15.8111054 186.211308,13.4245235 C186.211308,11.0379415 189.792295,11.0379415 189.792295,13.4245235" id="Shape" fill="#EA8E05"></path>
                    <path d="M181.735075,119.925743 C181.735075,154.028769 154.277114,181.67855 120.410677,181.67855 C86.5442408,181.67855 59.0862805,154.028769 59.0862805,119.925743 C59.0862805,85.8227158 86.5442408,58.1729348 120.410677,58.1729348 C154.277114,58.1729348 181.735075,85.8227158 181.735075,119.925743" id="Shape" fill="#EA8E05"></path>
                    <g id="Amplify-Logo" transform="translate(88.409629, 94.004012)" fill="#FF9900">
                        <g id="Group">
                            <path d="M12.7532939,23.8938127 L18.0977522,15.1608231 L22.6862735,22.6638444 L13.7433592,37.2766527 L31.6226571,37.2766527 L36.192239,44.7484114 L0,44.7484114 L12.7532939,23.8938127 Z M20.5092076,11.2115 L24.9148672,4.00761869 L49.8483798,44.7482888 L41.0184478,44.7482888 L20.5092076,11.2115 Z M27.3670093,0 L36.1851859,0 L63.5625137,44.7484114 L54.7332349,44.7484114 L27.3670093,0 Z" id="Fill-1"></path>
                            <polygon id="Fill-1" points="0 45.6433796 35.8098669 45.6433796 31.2885626 37.5886656 13.5981601 37.5886656"></polygon>
                        </g>
                    </g>
                </g>
            </g>
        </g>
    </g>
</svg>