<?xml version="1.0" encoding="UTF-8"?>
<svg width="359px" height="155px" viewBox="0 0 359 155" version="1.1" xmlns="http://www.w3.org/2000/svg" xmlns:xlink="http://www.w3.org/1999/xlink">
    <!-- Generator: Sketch 51.3 (57544) - http://www.bohemiancoding.com/sketch -->
    <title>Group 3</title>
    <desc>Created with Sketch.</desc>
    <defs></defs>
    <g id="Wireframe" stroke="none" stroke-width="1" fill="none" fill-rule="evenodd">
        <g id="Home" transform="translate(-913.000000, -156.000000)">
            <g id="Group-3" transform="translate(913.000000, 156.000000)">
                <path d="M39,4 L46,4 L46,11 L39,11 L39,4 Z M49,4 L56,4 L56,11 L49,11 L49,4 Z M58,4 L65,4 L65,11 L58,11 L58,4 Z M68,4 L75,4 L75,11 L68,11 L68,4 Z M78,4 L85,4 L85,11 L78,11 L78,4 Z M87,4 L94,4 L94,11 L87,11 L87,4 Z M97,4 L104,4 L104,11 L97,11 L97,4 Z M206,4 L213,4 L213,11 L206,11 L206,4 Z M235,4 L242,4 L242,11 L235,11 L235,4 Z M264,4 L271,4 L271,11 L264,11 L264,4 Z M294,4 L301,4 L301,11 L294,11 L294,4 Z M29,14 L36,14 L36,21 L29,21 L29,14 Z M39,14 L46,14 L46,21 L39,21 L39,14 Z M49,14 L56,14 L56,21 L49,21 L49,14 Z M58,14 L65,14 L65,21 L58,21 L58,14 Z M78,14 L85,14 L85,21 L78,21 L78,14 Z M87,14 L94,14 L94,21 L87,21 L87,14 Z M97,14 L104,14 L104,21 L97,21 L97,14 Z M255,14 L262,14 L262,21 L255,21 L255,14 Z M274,14 L281,14 L281,21 L274,21 L274,14 Z M284,14 L291,14 L291,21 L284,21 L284,14 Z M294,14 L301,14 L301,21 L294,21 L294,14 Z M303,14 L310,14 L310,21 L303,21 L303,14 Z M313,14 L320,14 L320,21 L313,21 L313,14 Z M323,14 L330,14 L330,21 L323,21 L323,14 Z M0,23 L7,23 L7,30 L0,30 L0,23 Z M10,23 L17,23 L17,30 L10,30 L10,23 Z M19,23 L26,23 L26,30 L19,30 L19,23 Z M29,23 L36,23 L36,30 L29,30 L29,23 Z M39,23 L46,23 L46,30 L39,30 L39,23 Z M49,23 L56,23 L56,30 L49,30 L49,23 Z M58,23 L65,23 L65,30 L58,30 L58,23 Z M68,23 L75,23 L75,30 L68,30 L68,23 Z M87,23 L94,23 L94,30 L87,30 L87,23 Z M97,23 L104,23 L104,30 L97,30 L97,23 Z M235,23 L242,23 L242,30 L235,30 L235,23 Z M245,23 L252,23 L252,30 L245,30 L245,23 Z M255,23 L262,23 L262,30 L255,30 L255,23 Z M264,23 L271,23 L271,30 L264,30 L264,23 Z M274,23 L281,23 L281,30 L274,30 L274,23 Z M284,23 L291,23 L291,30 L284,30 L284,23 Z M294,23 L301,23 L301,30 L294,30 L294,23 Z M303,23 L310,23 L310,30 L303,30 L303,23 Z M313,23 L320,23 L320,30 L313,30 L313,23 Z M323,23 L330,23 L330,30 L323,30 L323,23 Z M332,23 L339,23 L339,30 L332,30 L332,23 Z M342,23 L349,23 L349,30 L342,30 L342,23 Z M0,33 L7,33 L7,40 L0,40 L0,33 Z M10,33 L17,33 L17,40 L10,40 L10,33 Z M19,33 L26,33 L26,40 L19,40 L19,33 Z M29,33 L36,33 L36,40 L29,40 L29,33 Z M39,33 L46,33 L46,40 L39,40 L39,33 Z M49,33 L56,33 L56,40 L49,40 L49,33 Z M58,33 L65,33 L65,40 L58,40 L58,33 Z M68,33 L75,33 L75,40 L68,40 L68,33 Z M87,33 L94,33 L94,40 L87,40 L87,33 Z M206,33 L213,33 L213,40 L206,40 L206,33 Z M226,33 L233,33 L233,40 L226,40 L226,33 Z M235,33 L242,33 L242,40 L235,40 L235,33 Z M245,33 L252,33 L252,40 L245,40 L245,33 Z M255,33 L262,33 L262,40 L255,40 L255,33 Z M264,33 L271,33 L271,40 L264,40 L264,33 Z M274,33 L281,33 L281,40 L274,40 L274,33 Z M284,33 L291,33 L291,40 L284,40 L284,33 Z M294,33 L301,33 L301,40 L294,40 L294,33 Z M303,33 L310,33 L310,40 L303,40 L303,33 Z M313,33 L320,33 L320,40 L313,40 L313,33 Z M323,33 L330,33 L330,40 L323,40 L323,33 Z M332,33 L339,33 L339,40 L332,40 L332,33 Z M342,33 L349,33 L349,40 L342,40 L342,33 Z M352,33 L359,33 L359,40 L352,40 L352,33 Z M0,43 L7,43 L7,50 L0,50 L0,43 Z M10,43 L17,43 L17,50 L10,50 L10,43 Z M19,43 L26,43 L26,50 L19,50 L19,43 Z M29,43 L36,43 L36,50 L29,50 L29,43 Z M39,43 L46,43 L46,50 L39,50 L39,43 Z M49,43 L56,43 L56,50 L49,50 L49,43 Z M58,43 L65,43 L65,50 L58,50 L58,43 Z M68,43 L75,43 L75,50 L68,50 L68,43 Z M216,43 L223,43 L223,50 L216,50 L216,43 Z M226,43 L233,43 L233,50 L226,50 L226,43 Z M235,43 L242,43 L242,50 L235,50 L235,43 Z M245,43 L252,43 L252,50 L245,50 L245,43 Z M255,43 L262,43 L262,50 L255,50 L255,43 Z M264,43 L271,43 L271,50 L264,50 L264,43 Z M274,43 L281,43 L281,50 L274,50 L274,43 Z M284,43 L291,43 L291,50 L284,50 L284,43 Z M294,43 L301,43 L301,50 L294,50 L294,43 Z M303,43 L310,43 L310,50 L303,50 L303,43 Z M313,43 L320,43 L320,50 L313,50 L313,43 Z M323,43 L330,43 L330,50 L323,50 L323,43 Z M332,43 L339,43 L339,50 L332,50 L332,43 Z M29,52 L36,52 L36,59 L29,59 L29,52 Z M39,52 L46,52 L46,59 L39,59 L39,52 Z M49,52 L56,52 L56,59 L49,59 L49,52 Z M58,52 L65,52 L65,59 L58,59 L58,52 Z M68,52 L75,52 L75,59 L68,59 L68,52 Z M78,52 L85,52 L85,59 L78,59 L78,52 Z M216,52 L223,52 L223,59 L216,59 L216,52 Z M226,52 L233,52 L233,59 L226,59 L226,52 Z M235,52 L242,52 L242,59 L235,59 L235,52 Z M245,52 L252,52 L252,59 L245,59 L245,52 Z M255,52 L262,52 L262,59 L255,59 L255,52 Z M264,52 L271,52 L271,59 L264,59 L264,52 Z M274,52 L281,52 L281,59 L274,59 L274,52 Z M284,52 L291,52 L291,59 L284,59 L284,52 Z M294,52 L301,52 L301,59 L294,59 L294,52 Z M303,52 L310,52 L310,59 L303,59 L303,52 Z M313,52 L320,52 L320,59 L313,59 L313,52 Z M332,52 L339,52 L339,59 L332,59 L332,52 Z M29,62 L36,62 L36,69 L29,69 L29,62 Z M39,62 L46,62 L46,69 L39,69 L39,62 Z M49,62 L56,62 L56,69 L49,69 L49,62 Z M58,62 L65,62 L65,69 L58,69 L58,62 Z M68,62 L75,62 L75,69 L68,69 L68,62 Z M216,62 L223,62 L223,69 L216,69 L216,62 Z M235,62 L242,62 L242,69 L235,69 L235,62 Z M245,62 L252,62 L252,69 L245,69 L245,62 Z M255,62 L262,62 L262,69 L255,69 L255,62 Z M264,62 L271,62 L271,69 L264,69 L264,62 Z M274,62 L281,62 L281,69 L274,69 L274,62 Z M284,62 L291,62 L291,69 L284,69 L284,62 Z M294,62 L301,62 L301,69 L294,69 L294,62 Z M303,62 L310,62 L310,69 L303,69 L303,62 Z M313,62 L320,62 L320,69 L313,69 L313,62 Z M323,62 L330,62 L330,69 L323,69 L323,62 Z M39,72 L46,72 L46,79 L39,79 L39,72 Z M49,72 L56,72 L56,79 L49,79 L49,72 Z M58,72 L65,72 L65,79 L58,79 L58,72 Z M206,72 L213,72 L213,79 L206,79 L206,72 Z M216,72 L223,72 L223,79 L216,79 L216,72 Z M226,72 L233,72 L233,79 L226,79 L226,72 Z M235,72 L242,72 L242,79 L235,79 L235,72 Z M245,72 L252,72 L252,79 L245,79 L245,72 Z M255,72 L262,72 L262,79 L255,79 L255,72 Z M264,72 L271,72 L271,79 L264,79 L264,72 Z M274,72 L281,72 L281,79 L274,79 L274,72 Z M284,72 L291,72 L291,79 L284,79 L284,72 Z M294,72 L301,72 L301,79 L294,79 L294,72 Z M303,72 L310,72 L310,79 L303,79 L303,72 Z M313,72 L320,72 L320,79 L313,79 L313,72 Z M49,82 L56,82 L56,89 L49,89 L49,82 Z M58,82 L65,82 L65,89 L58,89 L58,82 Z M68,82 L75,82 L75,89 L68,89 L68,82 Z M206,82 L213,82 L213,89 L206,89 L206,82 Z M216,82 L223,82 L223,89 L216,89 L216,82 Z M226,82 L233,82 L233,89 L226,89 L226,82 Z M235,82 L242,82 L242,89 L235,89 L235,82 Z M245,82 L252,82 L252,89 L245,89 L245,82 Z M255,82 L262,82 L262,89 L255,89 L255,82 Z M274,82 L281,82 L281,89 L274,89 L274,82 Z M294,82 L301,82 L301,89 L294,89 L294,82 Z M303,82 L310,82 L310,89 L303,89 L303,82 Z M68,91 L75,91 L75,98 L68,98 L68,91 Z M78,91 L85,91 L85,98 L78,98 L78,91 Z M216,91 L223,91 L223,98 L216,98 L216,91 Z M226,91 L233,91 L233,98 L226,98 L226,91 Z M235,91 L242,91 L242,98 L235,98 L235,91 Z M245,91 L252,91 L252,98 L245,98 L245,91 Z M58,101 L65,101 L65,108 L58,108 L58,101 Z M68,101 L75,101 L75,108 L68,108 L68,101 Z M78,101 L85,101 L85,108 L78,108 L78,101 Z M87,101 L94,101 L94,108 L87,108 L87,101 Z M226,101 L233,101 L233,108 L226,108 L226,101 Z M235,101 L242,101 L242,108 L235,108 L235,101 Z M245,101 L252,101 L252,108 L245,108 L245,101 Z M294,101 L301,101 L301,108 L294,108 L294,101 Z M303,101 L310,101 L310,108 L303,108 L303,101 Z M313,101 L320,101 L320,108 L313,108 L313,101 Z M323,101 L330,101 L330,108 L323,108 L323,101 Z M68,111 L75,111 L75,118 L68,118 L68,111 Z M78,111 L85,111 L85,118 L78,118 L78,111 Z M87,111 L94,111 L94,118 L87,118 L87,111 Z M226,111 L233,111 L233,118 L226,118 L226,111 Z M235,111 L242,111 L242,118 L235,118 L235,111 Z M255,111 L262,111 L262,118 L255,118 L255,111 Z M303,111 L310,111 L310,118 L303,118 L303,111 Z M313,111 L320,111 L320,118 L313,118 L313,111 Z M323,111 L330,111 L330,118 L323,118 L323,111 Z M332,111 L339,111 L339,118 L332,118 L332,111 Z M68,120 L75,120 L75,127 L68,127 L68,120 Z M78,120 L85,120 L85,127 L78,127 L78,120 Z M235,120 L242,120 L242,127 L235,127 L235,120 Z M303,120 L310,120 L310,127 L303,127 L303,120 Z M313,120 L320,120 L320,127 L313,127 L313,120 Z M323,120 L330,120 L330,127 L323,127 L323,120 Z M68,130 L75,130 L75,137 L68,137 L68,130 Z M342,130 L349,130 L349,137 L342,137 L342,130 Z M68,140 L75,140 L75,155 L68,155 L68,140 Z" id="Combined-Shape" fill="#FFFFFF" fill-rule="nonzero"></path>
                <g id="Group-2" transform="translate(73.000000, 0.000000)">
                    <g id="np_community_73516_000000">
                        <path d="M49.0413223,28.7522736 C49.0413223,33.3492421 42.1983471,33.3492421 42.1983471,28.7522736 C42.1983471,24.1492421 49.0413223,24.1492421 49.0413223,28.7522736" id="Shape" fill="#FFFFFF" fill-rule="nonzero"></path>
                        <path d="M49.0413223,106.952274 C49.0413223,111.549242 42.1983471,111.549242 42.1983471,106.952274 C42.1983471,102.349242 49.0413223,102.349242 49.0413223,106.952274" id="Shape" fill="#FFFFFF" fill-rule="nonzero"></path>
                        <path d="M34.214876,91.425 C34.214876,95.2583333 28.5123967,95.2583333 28.5123967,91.425 C28.5123967,87.5916667 34.214876,87.5916667 34.214876,91.425" id="Shape" fill="#FFFFFF" fill-rule="nonzero"></path>
                        <path d="M108.347107,20.125 C108.347107,23.9583333 102.644628,23.9583333 102.644628,20.125 C102.644628,16.2916667 108.347107,16.2916667 108.347107,20.125" id="Shape" fill="#FFFFFF" fill-rule="nonzero"></path>
                        <path d="M95.8016529,116.7228 C95.8016529,120.559067 90.0991736,120.559067 90.0991736,116.7228 C90.0991736,112.8924 95.8016529,112.8924 95.8016529,116.7228" id="Shape" fill="#FFFFFF" fill-rule="nonzero"></path>
                        <path d="M52.4628099,122.475 C52.4628099,126.308333 46.7603306,126.308333 46.7603306,122.475 C46.7603306,118.641667 52.4628099,118.641667 52.4628099,122.475" id="Shape" fill="#FFFFFF" fill-rule="nonzero"></path>
                        <path d="M23.9504132,46.575 C23.9504132,50.4083333 18.2479339,50.4083333 18.2479339,46.575 C18.2479339,42.7416667 23.9504132,42.7416667 23.9504132,46.575" id="Shape" fill="#FFFFFF" fill-rule="nonzero"></path>
                        <path d="M28.5123967,75.325 C28.5123967,79.1583333 22.8099174,79.1583333 22.8099174,75.325 C22.8099174,71.4916667 28.5123967,71.4916667 28.5123967,75.325" id="Shape" fill="#FFFFFF" fill-rule="nonzero"></path>
                        <path d="M116.330579,64.975 C116.330579,68.8083333 110.628099,68.8083333 110.628099,64.975 C110.628099,61.1416667 116.330579,61.1416667 116.330579,64.975" id="Shape" fill="#FFFFFF" fill-rule="nonzero"></path>
                        <path d="M78.6942149,113.275 C78.6942149,117.108333 72.9917355,117.108333 72.9917355,113.275 C72.9917355,109.441667 78.6942149,109.441667 78.6942149,113.275" id="Shape" fill="#FFFFFF" fill-rule="nonzero"></path>
                        <path d="M74.1322314,24.725 C74.1322314,28.5583333 68.4297521,28.5583333 68.4297521,24.725 C68.4297521,20.8916667 74.1322314,20.8916667 74.1322314,24.725" id="Shape" fill="#FFFFFF" fill-rule="nonzero"></path>
                        <path d="M20.5289256,71.3022736 C20.5289256,75.8992421 13.6859504,75.8992421 13.6859504,71.3022736 C13.6859504,66.6992421 20.5289256,66.6992421 20.5289256,71.3022736" id="Shape" fill="#FFFFFF" fill-rule="nonzero"></path>
                        <path d="M111.768595,91.9977264 C111.768595,96.6007579 104.92562,96.6007579 104.92562,91.9977264 C104.92562,87.4007579 111.768595,87.4007579 111.768595,91.9977264" id="Shape" fill="#FFFFFF" fill-rule="nonzero"></path>
                        <path d="M38.7768595,27.025 C38.7768595,30.8583333 33.0743802,30.8583333 33.0743802,27.025 C33.0743802,23.1916667 38.7768595,23.1916667 38.7768595,27.025" id="Shape" fill="#FFFFFF" fill-rule="nonzero"></path>
                        <path d="M114.049587,57.5 C114.049587,60.5666667 109.487603,60.5666667 109.487603,57.5 C109.487603,54.4333333 114.049587,54.4333333 114.049587,57.5" id="Shape" fill="#FFFFFF" fill-rule="nonzero"></path>
                        <path d="M117.471074,106.95 C117.471074,110.016667 112.909091,110.016667 112.909091,106.95 C112.909091,103.883333 117.471074,103.883333 117.471074,106.95" id="Shape" fill="#FFFFFF" fill-rule="nonzero"></path>
                        <path d="M46.7603306,116.15 C46.7603306,119.216667 42.1983471,119.216667 42.1983471,116.15 C42.1983471,113.083333 46.7603306,113.083333 46.7603306,116.15" id="Shape" fill="#FFFFFF" fill-rule="nonzero"></path>
                        <path d="M26.231405,89.7 C26.231405,92.7666667 21.6694215,92.7666667 21.6694215,89.7 C21.6694215,86.6333333 26.231405,86.6333333 26.231405,89.7" id="Shape" fill="#FFFFFF" fill-rule="nonzero"></path>
                        <path d="M69.5702479,16.1 C69.5702479,19.1666667 65.0082645,19.1666667 65.0082645,16.1 C65.0082645,13.0333333 69.5702479,13.0333333 69.5702479,16.1" id="Shape" fill="#FFFFFF" fill-rule="nonzero"></path>
                        <path d="M104.92562,27.025 C104.92562,30.8583333 99.2231405,30.8583333 99.2231405,27.025 C99.2231405,23.1916667 104.92562,23.1916667 104.92562,27.025" id="Shape" fill="#FFFFFF" fill-rule="nonzero"></path>
                        <path d="M28.5123967,68.4225018 C28.5123967,72.2591661 22.8099174,72.2591661 22.8099174,68.4225018 C22.8099174,64.5924994 28.5123967,64.5924994 28.5123967,68.4225018" id="Shape" fill="#FFFFFF" fill-rule="nonzero"></path>
                        <path d="M62.7272727,113.852389 C62.7272727,121.51587 51.322314,121.51587 51.322314,113.852389 C51.322314,106.182537 62.7272727,106.182537 62.7272727,113.852389" id="Shape" fill="#FFFFFF" fill-rule="nonzero"></path>
                        <path d="M98.0826446,28.747611 C98.0826446,36.417463 86.677686,36.417463 86.677686,28.747611 C86.677686,21.0841297 98.0826446,21.0841297 98.0826446,28.747611" id="Shape" fill="#FFFFFF" fill-rule="nonzero"></path>
                        <path d="M30.7933884,98.325 C30.7933884,100.625 27.3719008,100.625 27.3719008,98.325 C27.3719008,96.025 30.7933884,96.025 30.7933884,98.325" id="Shape" fill="#FFFFFF" fill-rule="nonzero"></path>
                        <path d="M88.9586777,119.025 C88.9586777,121.325 85.5371901,121.325 85.5371901,119.025 C85.5371901,116.725 88.9586777,116.725 88.9586777,119.025" id="Shape" fill="#FFFFFF" fill-rule="nonzero"></path>
                        <path d="M124.31405,90.275 C124.31405,92.575 120.892562,92.575 120.892562,90.275 C120.892562,87.975 124.31405,87.975 124.31405,90.275" id="Shape" fill="#FFFFFF" fill-rule="nonzero"></path>
                        <path d="M124.31405,39.675 C124.31405,41.975 120.892562,41.975 120.892562,39.675 C120.892562,37.375 124.31405,37.375 124.31405,39.675" id="Shape" fill="#FFFFFF" fill-rule="nonzero"></path>
                        <path d="M93.5206612,20.1270626 C93.5206612,22.4243125 90.0991736,22.4243125 90.0991736,20.1270626 C90.0991736,17.8243125 93.5206612,17.8243125 93.5206612,20.1270626" id="Shape" fill="#FFFFFF" fill-rule="nonzero"></path>
                        <path d="M74.1322314,17.8270626 C74.1322314,20.1243125 70.7107438,20.1243125 70.7107438,17.8270626 C70.7107438,15.5243125 74.1322314,15.5243125 74.1322314,17.8270626" id="Shape" fill="#FFFFFF" fill-rule="nonzero"></path>
                        <path d="M36.4958678,38.5270626 C36.4958678,40.8243125 33.0743802,40.8243125 33.0743802,38.5270626 C33.0743802,36.2243125 36.4958678,36.2243125 36.4958678,38.5270626" id="Shape" fill="#FFFFFF" fill-rule="nonzero"></path>
                        <path d="M44.4793388,121.322937 C44.4793388,123.625688 41.0578512,123.625688 41.0578512,121.322937 C41.0578512,119.025688 44.4793388,119.025688 44.4793388,121.322937" id="Shape" fill="#FFFFFF" fill-rule="nonzero"></path>
                        <path d="M2.28099174,41.4 C2.28099174,42.9333333 0,42.9333333 0,41.4 C0,39.8666667 2.28099174,39.8666667 2.28099174,41.4" id="Shape" fill="#FFFFFF" fill-rule="nonzero"></path>
                        <path d="M138,79.35 C138,80.8833333 135.719008,80.8833333 135.719008,79.35 C135.719008,77.8166667 138,77.8166667 138,79.35" id="Shape" fill="#FFFFFF" fill-rule="nonzero"></path>
                        <path d="M22.8099174,1.15 C22.8099174,2.68333333 20.5289256,2.68333333 20.5289256,1.15 C20.5289256,-0.383333333 22.8099174,-0.383333333 22.8099174,1.15" id="Shape" fill="#FFFFFF" fill-rule="nonzero"></path>
                        <path d="M21.6694215,133.4 C21.6694215,134.933333 19.3884298,134.933333 19.3884298,133.4 C19.3884298,131.866667 21.6694215,131.866667 21.6694215,133.4" id="Shape" fill="#FFFFFF" fill-rule="nonzero"></path>
                        <path d="M78.6942149,118.44742 C78.6942149,119.984193 76.4132231,119.984193 76.4132231,118.44742 C76.4132231,116.917527 78.6942149,116.917527 78.6942149,118.44742" id="Shape" fill="#FFFFFF" fill-rule="nonzero"></path>
                        <path d="M119.752066,73.5974199 C119.752066,75.1341934 117.471074,75.1341934 117.471074,73.5974199 C117.471074,72.0675267 119.752066,72.0675267 119.752066,73.5974199" id="Shape" fill="#FFFFFF" fill-rule="nonzero"></path>
                        <path d="M79.8347107,10.35 C79.8347107,11.8833333 77.553719,11.8833333 77.553719,10.35 C77.553719,8.81666667 79.8347107,8.81666667 79.8347107,10.35" id="Shape" fill="#FFFFFF" fill-rule="nonzero"></path>
                        <path d="M15.9669421,79.35 C15.9669421,80.8833333 13.6859504,80.8833333 13.6859504,79.35 C13.6859504,77.8166667 15.9669421,77.8166667 15.9669421,79.35" id="Shape" fill="#FFFFFF" fill-rule="nonzero"></path>
                        <path d="M39.9173554,108.09742 C39.9173554,109.634193 37.6363636,109.634193 37.6363636,108.09742 C37.6363636,106.567527 39.9173554,106.567527 39.9173554,108.09742" id="Shape" fill="#FFFFFF" fill-rule="nonzero"></path>
                        <path d="M98.0826446,134.54742 C98.0826446,136.084193 95.8016529,136.084193 95.8016529,134.54742 C95.8016529,133.017527 98.0826446,133.017527 98.0826446,134.54742" id="Shape" fill="#FFFFFF" fill-rule="nonzero"></path>
                        <path d="M72.9917355,12.6518311 C72.9917355,14.182723 70.7107438,14.182723 70.7107438,12.6518311 C70.7107438,11.1160563 72.9917355,11.1160563 72.9917355,12.6518311" id="Shape" fill="#FFFFFF" fill-rule="nonzero"></path>
                        <path d="M130.016529,100.048169 C130.016529,101.583944 127.735537,101.583944 127.735537,100.048169 C127.735537,98.517277 130.016529,98.517277 130.016529,100.048169" id="Shape" fill="#FFFFFF" fill-rule="nonzero"></path>
                        <path d="M30.7933884,102.351831 C30.7933884,103.882723 28.5123967,103.882723 28.5123967,102.351831 C28.5123967,100.816056 30.7933884,100.816056 30.7933884,102.351831" id="Shape" fill="#FFFFFF" fill-rule="nonzero"></path>
                        <path d="M25.0909091,40.2518311 C25.0909091,41.782723 22.8099174,41.782723 22.8099174,40.2518311 C22.8099174,38.7160563 25.0909091,38.7160563 25.0909091,40.2518311" id="Shape" fill="#FFFFFF" fill-rule="nonzero"></path>
                        <path d="M78.6942149,18.4018311 C78.6942149,19.932723 76.4132231,19.932723 76.4132231,18.4018311 C76.4132231,16.8660563 78.6942149,16.8660563 78.6942149,18.4018311" id="Shape" fill="#FFFFFF" fill-rule="nonzero"></path>
                        <path d="M112.909091,72.4518311 C112.909091,73.982723 110.628099,73.982723 110.628099,72.4518311 C110.628099,70.9160563 112.909091,70.9160563 112.909091,72.4518311" id="Shape" fill="#FFFFFF" fill-rule="nonzero"></path>
                        <path d="M31.9338843,111.551831 C31.9338843,113.082723 29.6528926,113.082723 29.6528926,111.551831 C29.6528926,110.016056 31.9338843,110.016056 31.9338843,111.551831" id="Shape" fill="#FFFFFF" fill-rule="nonzero"></path>
                        <path d="M107.206612,37.9477454 C107.206612,44.0840849 98.0826446,44.0840849 98.0826446,37.9477454 C98.0826446,31.8174182 107.206612,31.8174182 107.206612,37.9477454" id="Shape" fill="#FFFFFF" fill-rule="nonzero"></path>
                        <path d="M45.6198347,13.8020933 C45.6198347,16.8659689 41.0578512,16.8659689 41.0578512,13.8020933 C41.0578512,10.7326356 45.6198347,10.7326356 45.6198347,13.8020933" id="Shape" fill="#FFFFFF" fill-rule="nonzero"></path>
                        <path d="M17.107438,44.277356 C17.107438,46.5742147 13.6859504,46.5742147 13.6859504,44.277356 C13.6859504,41.9742147 17.107438,41.9742147 17.107438,44.277356" id="Shape" fill="#FFFFFF" fill-rule="nonzero"></path>
                        <path d="M95.8016529,127.072644 C95.8016529,129.375785 92.3801653,129.375785 92.3801653,127.072644 C92.3801653,124.775785 95.8016529,124.775785 95.8016529,127.072644" id="Shape" fill="#FFFFFF" fill-rule="nonzero"></path>
                        <path d="M42.1983471,34.5020933 C42.1983471,37.5659689 37.6363636,37.5659689 37.6363636,34.5020933 C37.6363636,31.4326356 42.1983471,31.4326356 42.1983471,34.5020933" id="Shape" fill="#FFFFFF" fill-rule="nonzero"></path>
                        <path d="M117.471074,90.8479067 C117.471074,93.9173644 112.909091,93.9173644 112.909091,90.8479067 C112.909091,87.7840311 117.471074,87.7840311 117.471074,90.8479067" id="Shape" fill="#FFFFFF" fill-rule="nonzero"></path>
                        <path d="M11.4049587,77.0479067 C11.4049587,80.1173644 6.84297521,80.1173644 6.84297521,77.0479067 C6.84297521,73.9840311 11.4049587,73.9840311 11.4049587,77.0479067" id="Shape" fill="#FFFFFF" fill-rule="nonzero"></path>
                        <path d="M123.173554,50.0228004 C123.173554,52.3257332 119.752066,52.3257332 119.752066,50.0228004 C119.752066,47.7257332 123.173554,47.7257332 123.173554,50.0228004" id="Shape" fill="#FFFFFF" fill-rule="nonzero"></path>
                        <path d="M108.347107,45.4271996 C108.347107,47.7242668 104.92562,47.7242668 104.92562,45.4271996 C104.92562,43.1242668 108.347107,43.1242668 108.347107,45.4271996" id="Shape" fill="#FFFFFF" fill-rule="nonzero"></path>
                        <path d="M120.892562,96.0228004 C120.892562,98.3257332 117.471074,98.3257332 117.471074,96.0228004 C117.471074,93.7257332 120.892562,93.7257332 120.892562,96.0228004" id="Shape" fill="#FFFFFF" fill-rule="nonzero"></path>
                        <path d="M63.8677686,130.525 C63.8677686,132.825 60.446281,132.825 60.446281,130.525 C60.446281,128.225 63.8677686,128.225 63.8677686,130.525" id="Shape" fill="#FFFFFF" fill-rule="nonzero"></path>
                        <path d="M21.6694215,78.7728004 C21.6694215,81.0757332 18.2479339,81.0757332 18.2479339,78.7728004 C18.2479339,76.4757332 21.6694215,76.4757332 21.6694215,78.7728004" id="Shape" fill="#FFFFFF" fill-rule="nonzero"></path>
                        <path d="M36.4958678,20.125 C36.4958678,22.425 33.0743802,22.425 33.0743802,20.125 C33.0743802,17.825 36.4958678,17.825 36.4958678,20.125" id="Shape" fill="#FFFFFF" fill-rule="nonzero"></path>
                        <path d="M57.0247934,9.77719961 C57.0247934,12.0742668 53.6033058,12.0742668 53.6033058,9.77719961 C53.6033058,7.4742668 57.0247934,7.4742668 57.0247934,9.77719961" id="Shape" fill="#FFFFFF" fill-rule="nonzero"></path>
                        <path d="M111.768595,50.6 C111.768595,53.6666667 107.206612,53.6666667 107.206612,50.6 C107.206612,47.5333333 111.768595,47.5333333 111.768595,50.6" id="Shape" fill="#FFFFFF" fill-rule="nonzero"></path>
                        <path d="M65.0082645,25.3020933 C65.0082645,28.3659689 60.446281,28.3659689 60.446281,25.3020933 C60.446281,22.2326356 65.0082645,22.2326356 65.0082645,25.3020933" id="Shape" fill="#FFFFFF" fill-rule="nonzero"></path>
                        <path d="M18.2479339,107.525 C18.2479339,109.825 14.8264463,109.825 14.8264463,107.525 C14.8264463,105.225 18.2479339,105.225 18.2479339,107.525" id="Shape" fill="#FFFFFF" fill-rule="nonzero"></path>
                        <path d="M34.214876,45.425 C34.214876,50.7916667 26.231405,50.7916667 26.231405,45.425 C26.231405,40.0583333 34.214876,40.0583333 34.214876,45.425" id="Shape" fill="#FFFFFF" fill-rule="nonzero"></path>
                        <path d="M44.4793388,21.275 C44.4793388,25.1083333 38.7768595,25.1083333 38.7768595,21.275 C38.7768595,17.4416667 44.4793388,17.4416667 44.4793388,21.275" id="Shape" fill="#FFFFFF" fill-rule="nonzero"></path>
                        <path d="M75.2727273,120.172709 C75.2727273,124.009097 69.5702479,124.009097 69.5702479,120.172709 C69.5702479,116.34243 75.2727273,116.34243 75.2727273,120.172709" id="Shape" fill="#FFFFFF" fill-rule="nonzero"></path>
                        <path d="M18.2479339,60.375 C18.2479339,64.2083333 12.5454545,64.2083333 12.5454545,60.375 C12.5454545,56.5416667 18.2479339,56.5416667 18.2479339,60.375" id="Shape" fill="#FFFFFF" fill-rule="nonzero"></path>
                        <path d="M117.471074,46.575 C117.471074,50.4083333 111.768595,50.4083333 111.768595,46.575 C111.768595,42.7416667 117.471074,42.7416667 117.471074,46.575" id="Shape" fill="#FFFFFF" fill-rule="nonzero"></path>
                        <path d="M90.0991736,112.127332 C90.0991736,117.490889 82.1157025,117.490889 82.1157025,112.127332 C82.1157025,106.757556 90.0991736,106.757556 90.0991736,112.127332" id="Shape" fill="#FFFFFF" fill-rule="nonzero"></path>
                        <path d="M84.3966942,25.8726704 C84.3966942,31.2424432 76.4132231,31.2424432 76.4132231,25.8726704 C76.4132231,20.5091099 84.3966942,20.5091099 84.3966942,25.8726704" id="Shape" fill="#FFFFFF" fill-rule="nonzero"></path>
                        <path d="M41.0578512,100.052255 C41.0578512,106.182582 31.9338843,106.182582 31.9338843,100.052255 C31.9338843,93.9159151 41.0578512,93.9159151 41.0578512,100.052255" id="Shape" fill="#FFFFFF" fill-rule="nonzero"></path>
                        <path d="M118.61157,81.6522546 C118.61157,87.7825818 109.487603,87.7825818 109.487603,81.6522546 C109.487603,75.5159151 118.61157,75.5159151 118.61157,81.6522546" id="Shape" fill="#FFFFFF" fill-rule="nonzero"></path>
                        <path d="M102.644628,108.097611 C102.644628,115.767463 91.2396694,115.767463 91.2396694,108.097611 C91.2396694,100.43413 102.644628,100.43413 102.644628,108.097611" id="Shape" fill="#FFFFFF" fill-rule="nonzero"></path>
                        <path d="M30.7933884,57.502389 C30.7933884,65.1658703 19.3884298,65.1658703 19.3884298,57.502389 C19.3884298,49.832537 30.7933884,49.832537 30.7933884,57.502389" id="Shape" fill="#FFFFFF" fill-rule="nonzero"></path>
                        <path d="M90.0991736,11.5 C90.0991736,14.5666667 85.5371901,14.5666667 85.5371901,11.5 C85.5371901,8.43333333 90.0991736,8.43333333 90.0991736,11.5" id="Shape" fill="#FFFFFF" fill-rule="nonzero"></path>
                        <path d="M69.5702479,113.852197 C69.5702479,116.915934 65.0082645,116.915934 65.0082645,113.852197 C65.0082645,110.782601 69.5702479,110.782601 69.5702479,113.852197" id="Shape" fill="#FFFFFF" fill-rule="nonzero"></path>
                        <path d="M14.8264463,24.1521974 C14.8264463,27.2159342 10.2644628,27.2159342 10.2644628,24.1521974 C10.2644628,21.0826009 14.8264463,21.0826009 14.8264463,24.1521974" id="Shape" fill="#FFFFFF" fill-rule="nonzero"></path>
                        <path d="M52.4628099,135.697803 C52.4628099,138.767399 47.9008264,138.767399 47.9008264,135.697803 C47.9008264,132.634066 52.4628099,132.634066 52.4628099,135.697803" id="Shape" fill="#FFFFFF" fill-rule="nonzero"></path>
                        <path d="M115.190083,52.9019968 C115.190083,54.4326677 112.909091,54.4326677 112.909091,52.9019968 C112.909091,51.3660011 115.190083,51.3660011 115.190083,52.9019968" id="Shape" fill="#FFFFFF" fill-rule="nonzero"></path>
                        <path d="M108.347107,31.0519968 C108.347107,32.5826677 106.066116,32.5826677 106.066116,31.0519968 C106.066116,29.5160011 108.347107,29.5160011 108.347107,31.0519968" id="Shape" fill="#FFFFFF" fill-rule="nonzero"></path>
                        <path d="M116.330579,97.1725018 C116.330579,101.009166 110.628099,101.009166 110.628099,97.1725018 C110.628099,93.3424994 116.330579,93.3424994 116.330579,97.1725018" id="Shape" fill="#FFFFFF" fill-rule="nonzero"></path>
                        <path d="M120.892562,100.05 C120.892562,101.583333 118.61157,101.583333 118.61157,100.05 C118.61157,98.5166667 120.892562,98.5166667 120.892562,100.05" id="Shape" fill="#FFFFFF" fill-rule="nonzero"></path>
                        <path d="M130.016529,69 C130.016529,70.5333333 127.735537,70.5333333 127.735537,69 C127.735537,67.4666667 130.016529,67.4666667 130.016529,69" id="Shape" fill="#FFFFFF" fill-rule="nonzero"></path>
                        <path d="M120.892562,85.0980032 C120.892562,86.6339989 118.61157,86.6339989 118.61157,85.0980032 C118.61157,83.5673323 120.892562,83.5673323 120.892562,85.0980032" id="Shape" fill="#FFFFFF" fill-rule="nonzero"></path>
                        <path d="M34.214876,32.1980032 C34.214876,33.7339989 31.9338843,33.7339989 31.9338843,32.1980032 C31.9338843,30.6673323 34.214876,30.6673323 34.214876,32.1980032" id="Shape" fill="#FFFFFF" fill-rule="nonzero"></path>
                        <path d="M63.8677686,3.44800321 C63.8677686,4.98399893 61.5867769,4.98399893 61.5867769,3.44800321 C61.5867769,1.91733226 63.8677686,1.91733226 63.8677686,3.44800321" id="Shape" fill="#FFFFFF" fill-rule="nonzero"></path>
                        <path d="M41.0578512,111.55 C41.0578512,113.083333 38.7768595,113.083333 38.7768595,111.55 C38.7768595,110.016667 41.0578512,110.016667 41.0578512,111.55" id="Shape" fill="#FFFFFF" fill-rule="nonzero"></path>
                        <path d="M61.5867769,125.347726 C61.5867769,129.950758 54.7438017,129.950758 54.7438017,125.347726 C54.7438017,120.750758 61.5867769,120.750758 61.5867769,125.347726" id="Shape" fill="#FFFFFF" fill-rule="nonzero"></path>
                        <path d="M67.2892562,119.6 C67.2892562,122.666667 62.7272727,122.666667 62.7272727,119.6 C62.7272727,116.533333 67.2892562,116.533333 67.2892562,119.6" id="Shape" fill="#FFFFFF" fill-rule="nonzero"></path>
                        <path d="M66.1487603,125.348003 C66.1487603,126.883999 63.8677686,126.883999 63.8677686,125.348003 C63.8677686,123.817332 66.1487603,123.817332 66.1487603,125.348003" id="Shape" fill="#FFFFFF" fill-rule="nonzero"></path>
                        <path d="M98.0826446,128.801997 C98.0826446,130.332668 95.8016529,130.332668 95.8016529,128.801997 C95.8016529,127.266001 98.0826446,127.266001 98.0826446,128.801997" id="Shape" fill="#FFFFFF" fill-rule="nonzero"></path>
                        <path d="M20.5289256,64.4 C20.5289256,65.9333333 18.2479339,65.9333333 18.2479339,64.4 C18.2479339,62.8666667 20.5289256,62.8666667 20.5289256,64.4" id="Shape" fill="#FFFFFF" fill-rule="nonzero"></path>
                        <path d="M117.471074,12.0725018 C117.471074,15.9091661 111.768595,15.9091661 111.768595,12.0725018 C111.768595,8.24249939 117.471074,8.24249939 117.471074,12.0725018" id="Shape" fill="#FFFFFF" fill-rule="nonzero"></path>
                        <path d="M100.363636,20.6979067 C100.363636,23.7673644 95.8016529,23.7673644 95.8016529,20.6979067 C95.8016529,17.6340311 100.363636,17.6340311 100.363636,20.6979067" id="Shape" fill="#FFFFFF" fill-rule="nonzero"></path>
                        <path d="M109.487603,8.05 C109.487603,9.58333333 107.206612,9.58333333 107.206612,8.05 C107.206612,6.51666667 109.487603,6.51666667 109.487603,8.05" id="Shape" fill="#FFFFFF" fill-rule="nonzero"></path>
                        <path d="M104.92562,69 C104.92562,88.6877349 89.0952742,104.65 69.5702479,104.65 C50.0452216,104.65 34.214876,88.6877349 34.214876,69 C34.214876,49.3122651 50.0452216,33.35 69.5702479,33.35 C89.0952742,33.35 104.92562,49.3122651 104.92562,69" id="Shape" fill="#FFFFFF" fill-rule="nonzero"></path>
                        <g id="Group" transform="translate(48.754491, 54.036145)" fill="#FF9900">
                            <path d="M8.19256337,15.5362741 L11.6257794,9.85789528 L14.5733905,14.7365221 L8.82856942,24.2380863 L20.3140163,24.2380863 L23.2494611,29.0963855 L0,29.0963855 L8.19256337,15.5362741 Z M13.1748694,7.28995989 L16.0050124,2.6058404 L32.0220024,29.0963058 L26.3497599,29.0963058 L13.1748694,7.28995989 Z M17.5802392,0 L23.2449302,0 L40.8317979,29.0963855 L35.1599749,29.0963855 L17.5802392,0 Z" id="Fill-1"></path>
                            <polygon id="Fill-1" points="0 29.0963855 23.332456 29.0963855 20.3865324 24.1438093 8.86008523 24.1438093"></polygon>
                        </g>
                    </g>
                    <g id="Amplify-Logo" transform="translate(50.754491, 54.036145)"></g>
                </g>
            </g>
        </g>
    </g>
</svg>