<?xml version="1.0" encoding="UTF-8"?>
<svg width="38px" height="44px" viewBox="0 0 38 44" version="1.1" xmlns="http://www.w3.org/2000/svg" xmlns:xlink="http://www.w3.org/1999/xlink">
    <!-- Generator: Sketch 54.1 (76490) - https://sketchapp.com -->
    <title>Icons/Page</title>
    <desc>Created with Sketch.</desc>
    <g id="Icons/Page" stroke="none" stroke-width="1" fill="none" fill-rule="evenodd">
        <path d="M2.30382293,0.000351957049 L26.1157111,0.000351957049 C26.420749,0.20314081 26.710542,0.426549946 26.9833807,0.668850376 C30.4540587,4.18842086 33.9247367,7.69919242 37.3954148,11.201605 C37.7987466,11.586558 38.0190522,12.127912 37.9987054,12.6881396 L37.9987054,40.9942835 C37.9987054,42.8554768 36.8836199,43.9982811 35.0533579,43.9982811 L2.94958597,44 C1.11424847,44 0.00766615749,42.8692057 0.00423886292,40.9994339 L0.00423886292,17.9330475 L0.00423886292,2.89920219 C-0.0703286548,1.54671924 0.846485657,0.343730053 2.15644927,0.0756267708 C2.20729036,0.0550064872 2.25643516,0.0292256334 2.30388367,0 L2.30382293,0.000351957049 Z M4.0153691,3.32090303 C3.86118374,3.3191974 3.70868018,3.3379419 3.55952307,3.37713651 C2.89920061,3.56968962 2.58583597,4.07919348 2.58583597,4.92097261 L2.58583597,31.3294644 L2.58583597,40.0198958 C2.55232002,40.4237421 2.69477137,40.8224585 2.97799655,41.1087515 C3.2595485,41.3950227 3.65170479,41.5398618 4.0489022,41.5040784 L33.9463782,41.5040784 C35.0021819,41.5040784 35.5217391,40.9843626 35.5217391,39.9159657 L35.5217391,14.6983613 L35.5217391,14.2127144 L26.3194414,14.2127144 C25.2921253,14.2127144 24.7775878,13.6878948 24.7742413,12.6382119 L24.7742413,7.18542695 C24.7792696,5.91252883 24.7792696,4.63797307 24.7792696,3.32075472 L4.0153691,3.32090303 Z M27.2608696,10.7924528 L27.2608696,4.98113208 L33.0434783,10.7924528 L27.2608696,10.7924528 Z M19.0453427,27.4007863 L28.3513661,27.4007863 C29.0522367,27.3726744 29.6542094,27.8568295 29.7313017,28.5049898 C29.8067544,29.1531501 29.3288849,29.746654 28.6397327,29.8606448 C28.4737352,29.8825114 28.3043853,29.8918834 28.1367009,29.8840707 L9.82169139,29.8840707 C9.66743375,29.8887567 9.51317181,29.8793888 9.36227087,29.8559589 C8.66977052,29.7435074 8.19189248,29.1484641 8.26902774,28.4987445 C8.346163,27.8490248 8.95144084,27.3664331 9.65402844,27.3976596 L16.23349,27.3976596 L19.0403635,27.3976596 L19.0453427,27.4007863 Z M18.9539613,35.6981132 L9.76469972,35.6981132 C8.8751627,35.6981132 8.26086957,35.1922294 8.26086957,34.4590466 C8.26086957,33.7258638 8.86171416,33.2075472 9.75967263,33.2075472 L28.2353003,33.2075472 C29.1198102,33.2075472 29.7391304,33.7212414 29.7391304,34.4543843 C29.7391304,35.1875272 29.1332158,35.6934509 28.2353003,35.6934509 L18.9536605,35.6934509 L18.9539613,35.6981132 Z M19.0035489,22.4307455 L28.1046188,22.4307455 C28.2842888,22.4229632 28.4656353,22.4307455 28.6453011,22.4540924 C29.3236686,22.569277 29.7972063,23.145216 29.7333715,23.7818275 C29.6712434,24.4184788 29.0952822,24.9056604 28.4051793,24.9056604 L23.8696896,24.9056604 L9.72804043,24.9056604 C8.66679344,24.9056604 8.00858646,24.0729171 8.35282114,23.216783 L8.35114467,23.2152289 C8.56943365,22.7015484 9.12356638,22.3793376 9.71798162,22.4182691 L19.0038928,22.4182691 L19.0035489,22.4307455 Z M13.6194647,16.6078386 L17.4934279,16.6078386 C18.3929622,16.6078386 19.0050053,17.1146024 18.9999692,17.8490605 C18.994933,18.5835187 18.3929622,19.0902825 17.4934279,19.0902825 L9.71192706,19.0902825 C9.33865349,19.1183491 8.96872874,18.9998434 8.69298864,18.7643849 C8.41891866,18.5289303 8.26086957,18.1967855 8.26086957,17.8490566 C8.26086957,17.5013276 8.41892296,17.1707635 8.69298864,16.9337282 C8.96873735,16.6982737 9.33864918,16.579764 9.71192706,16.6078306 C11.0166779,16.604713 12.3164356,16.6078306 13.6195077,16.6078306 L13.6194647,16.6078386 Z" id="Fill-1" fill="#FF9900"></path>
    </g>
</svg>