<?xml version="1.0" encoding="UTF-8"?>
<svg width="50px" height="40px" viewBox="0 0 50 40" version="1.1" xmlns="http://www.w3.org/2000/svg" xmlns:xlink="http://www.w3.org/1999/xlink">
    <!-- Generator: Sketch 54.1 (76490) - https://sketchapp.com -->
    <title>Icons/People</title>
    <desc>Created with Sketch.</desc>
    <g id="Icons/People" stroke="none" stroke-width="1" fill="none" fill-rule="evenodd">
        <path d="M38.0261872,15.8223359 L44.3131498,15.8227389 C47.4552871,15.8227389 49.9263123,18.3595592 50,21.4184783 L50,33.7301795 C50,36.0440298 48.5789275,38.0588184 46.5578705,38.879979 C40.1682694,39.7767714 37.188961,39.861627 37.6199452,39.1345458 C38.5014808,37.6473732 38.9998651,35.913839 38.9998651,34.1051988 L38.9998651,20.074883 C38.9998651,18.5087207 38.6261852,17.0920557 38.0261872,15.8223359 Z M45.9574885,8.95660817 C45.9574885,11.8397706 43.6127256,14.1798132 40.718033,14.1798132 C37.8259005,14.1798132 35.4785775,11.8397034 35.4785775,8.95660817 C35.4785775,6.07082653 37.8259679,3.73340318 40.718033,3.73340318 C43.612793,3.73340318 45.9574885,6.07089369 45.9574885,8.95660817 Z M11.0026342,20.074883 L11.0027622,34.0286369 C11.0027622,35.8883329 11.5296577,37.6427924 12.4582209,39.1518113 C12.8827385,39.8416998 9.87737473,39.7509547 3.44212953,38.8795761 C1.42107254,37.9823236 0,36.0436269 0,33.7297766 L0,21.4180753 C0,18.3591562 2.54471285,15.8223359 5.61314894,15.8223359 L11.9763121,15.8223359 C11.3763209,17.1655283 11.0026342,18.5821261 11.0026342,20.074883 Z M14.2942624,8.95660817 C14.2942624,11.8397706 11.9494994,14.1798132 9.05480689,14.1798132 C6.16267434,14.1798132 3.81535138,11.8397034 3.81535138,8.95660817 C3.81535138,6.07082653 6.16274171,3.73340318 9.05480689,3.73340318 C11.9495668,3.73340318 14.2942624,6.07089369 14.2942624,8.95660817 Z M35.4048763,20.074883 L35.4785775,20.0755546 L35.4785775,34.0293085 C35.4785775,36.7156932 33.831214,38.9534517 31.5864934,39.9241096 L18.4864062,40 C16.165357,39.029342 14.594322,36.7181109 14.594322,34.1051988 L14.594322,20.074883 C14.594322,16.5674048 17.4390271,13.7314556 20.9574852,13.7314556 L29.0417131,13.7314556 C32.5601039,13.7314556 35.4048763,16.5673376 35.4048763,20.074883 Z M30.8393086,5.89480117 C30.8393086,9.15049799 28.191926,11.7922216 24.9261674,11.7922216 C21.6604088,11.7922216 19.0103989,9.15043083 19.0103989,5.89480117 C19.0103989,2.63917152 21.6604088,0 24.9261674,0 C28.191926,0 30.8393086,2.63917152 30.8393086,5.89480117 Z" id="Fill-82" fill="#FF9900"></path>
    </g>
</svg>