<?xml version="1.0" encoding="UTF-8"?>
<svg width="1015px" height="404px" viewBox="0 0 1015 404" version="1.1" xmlns="http://www.w3.org/2000/svg" xmlns:xlink="http://www.w3.org/1999/xlink">
    <!-- Generator: Sketch 51.3 (57544) - http://www.bohemiancoding.com/sketch -->
    <title>np_world-map_439965_000000</title>
    <desc>Created with Sketch.</desc>
    <defs></defs>
    <g id="Wireframe" stroke="none" stroke-width="1" fill="none" fill-rule="evenodd">
        <g id="Artboard" transform="translate(-232.000000, -80.000000)">
            <g id="np_world-map_439965_000000" transform="translate(232.000000, 80.000000)">
                <path d="M0,70 L8,70 L8,78 L0,78 L0,70 Z M0,88 L8,88 L8,96 L0,96 L0,88 Z M18,70 L26,70 L26,78 L18,78 L18,70 Z M18,88 L26,88 L26,96 L18,96 L18,88 Z M18,105 L26,105 L26,113 L18,113 L18,105 Z M35,70 L43,70 L43,78 L35,78 L35,70 Z M35,88 L43,88 L43,96 L35,96 L35,88 Z M53,70 L61,70 L61,78 L53,78 L53,70 Z M53,88 L61,88 L61,96 L53,96 L53,88 Z M35,105 L43,105 L43,113 L35,113 L35,105 Z M70,70 L78,70 L78,78 L70,78 L70,70 Z M70,88 L78,88 L78,96 L70,96 L70,88 Z M70,105 L78,105 L78,113 L70,113 L70,105 Z M88,70 L96,70 L96,78 L88,78 L88,70 Z M88,88 L96,88 L96,96 L88,96 L88,88 Z M88,105 L96,105 L96,113 L88,113 L88,105 Z M88,123 L96,123 L96,131 L88,131 L88,123 Z M88,140 L96,140 L96,148 L88,148 L88,140 Z M105,35 L113,35 L113,43 L105,43 L105,35 Z M105,53 L113,53 L113,61 L105,61 L105,53 Z M105,70 L113,70 L113,78 L105,78 L105,70 Z M105,88 L113,88 L113,96 L105,96 L105,88 Z M105,105 L113,105 L113,113 L105,113 L105,105 Z M105,123 L113,123 L113,131 L105,131 L105,123 Z M105,140 L113,140 L113,148 L105,148 L105,140 Z M105,158 L113,158 L113,166 L105,166 L105,158 Z M105,175 L113,175 L113,183 L105,183 L105,175 Z M123,35 L131,35 L131,43 L123,43 L123,35 Z M140,18 L148,18 L148,26 L140,26 L140,18 Z M123,53 L131,53 L131,61 L123,61 L123,53 Z M123,70 L131,70 L131,78 L123,78 L123,70 Z M123,88 L131,88 L131,96 L123,96 L123,88 Z M123,105 L131,105 L131,113 L123,113 L123,105 Z M123,123 L131,123 L131,131 L123,131 L123,123 Z M123,140 L131,140 L131,148 L123,148 L123,140 Z M123,158 L131,158 L131,166 L123,166 L123,158 Z M123,175 L131,175 L131,183 L123,183 L123,175 Z M123,193 L131,193 L131,201 L123,201 L123,193 Z M140,53 L148,53 L148,61 L140,61 L140,53 Z M140,70 L148,70 L148,78 L140,78 L140,70 Z M140,88 L148,88 L148,96 L140,96 L140,88 Z M140,105 L148,105 L148,113 L140,113 L140,105 Z M140,123 L148,123 L148,131 L140,131 L140,123 Z M140,140 L148,140 L148,148 L140,148 L140,140 Z M140,158 L148,158 L148,166 L140,166 L140,158 Z M140,175 L148,175 L148,183 L140,183 L140,175 Z M140,193 L148,193 L148,201 L140,201 L140,193 Z M140,210 L148,210 L148,218 L140,218 L140,210 Z M158,18 L166,18 L166,26 L158,26 L158,18 Z M158,35 L166,35 L166,43 L158,43 L158,35 Z M158,53 L166,53 L166,61 L158,61 L158,53 Z M175,53 L183,53 L183,61 L175,61 L175,53 Z M193,53 L201,53 L201,61 L193,61 L193,53 Z M158,70 L166,70 L166,78 L158,78 L158,70 Z M158,123 L166,123 L166,131 L158,131 L158,123 Z M158,140 L166,140 L166,148 L158,148 L158,140 Z M158,158 L166,158 L166,166 L158,166 L158,158 Z M158,175 L166,175 L166,183 L158,183 L158,175 Z M175,123 L183,123 L183,131 L175,131 L175,123 Z M175,140 L183,140 L183,148 L175,148 L175,140 Z M175,158 L183,158 L183,166 L175,166 L175,158 Z M175,175 L183,175 L183,183 L175,183 L175,175 Z M175,228 L183,228 L183,236 L175,236 L175,228 Z M193,228 L201,228 L201,236 L193,236 L193,228 Z M210,228 L218,228 L218,236 L210,236 L210,228 Z M228,228 L236,228 L236,236 L228,236 L228,228 Z M193,245 L201,245 L201,253 L193,253 L193,245 Z M210,245 L218,245 L218,253 L210,253 L210,245 Z M228,245 L236,245 L236,253 L228,253 L228,245 Z M246,245 L254,245 L254,253 L246,253 L246,245 Z M193,263 L201,263 L201,271 L193,271 L193,263 Z M210,263 L218,263 L218,271 L210,271 L210,263 Z M228,263 L236,263 L236,271 L228,271 L228,263 Z M246,263 L254,263 L254,271 L246,271 L246,263 Z M263,263 L271,263 L271,271 L263,271 L263,263 Z M193,281 L201,281 L201,289 L193,289 L193,281 Z M210,281 L218,281 L218,289 L210,289 L210,281 Z M228,281 L236,281 L236,289 L228,289 L228,281 Z M246,281 L254,281 L254,289 L246,289 L246,281 Z M210,299 L218,299 L218,307 L210,307 L210,299 Z M228,299 L236,299 L236,307 L228,307 L228,299 Z M246,299 L254,299 L254,307 L246,307 L246,299 Z M210,317 L218,317 L218,325 L210,325 L210,317 Z M228,317 L236,317 L236,325 L228,325 L228,317 Z M210,334 L218,334 L218,342 L210,342 L210,334 Z M210,352 L218,352 L218,360 L210,360 L210,352 Z M210,369 L218,369 L218,377 L210,377 L210,369 Z M228,387 L236,387 L236,395 L228,395 L228,387 Z M228,334 L236,334 L236,342 L228,342 L228,334 Z M246,317 L254,317 L254,325 L246,325 L246,317 Z M263,281 L271,281 L271,289 L263,289 L263,281 Z M193,105 L201,105 L201,113 L193,113 L193,105 Z M193,123 L201,123 L201,131 L193,131 L193,123 Z M193,70 L201,70 L201,78 L193,78 L193,70 Z M193,88 L201,88 L201,96 L193,96 L193,88 Z M193,140 L201,140 L201,148 L193,148 L193,140 Z M210,105 L218,105 L218,113 L210,113 L210,105 Z M210,123 L218,123 L218,131 L210,131 L210,123 Z M210,70 L218,70 L218,78 L210,78 L210,70 Z M210,88 L218,88 L218,96 L210,96 L210,88 Z M210,140 L218,140 L218,148 L210,148 L210,140 Z M228,123 L236,123 L236,131 L228,131 L228,123 Z M228,140 L236,140 L236,148 L228,148 L228,140 Z M193,158 L201,158 L201,166 L193,166 L193,158 Z M158,210 L166,210 L166,218 L158,218 L158,210 Z M175,0 L183,0 L183,8 L175,8 L175,0 Z M175,18 L183,18 L183,26 L175,26 L175,18 Z M193,0 L201,0 L201,8 L193,8 L193,0 Z M193,18 L201,18 L201,26 L193,26 L193,18 Z M210,18 L218,18 L218,26 L210,26 L210,18 Z M228,18 L236,18 L236,26 L228,26 L228,18 Z M228,35 L236,35 L236,43 L228,43 L228,35 Z M246,18 L254,18 L254,26 L246,26 L246,18 Z M263,18 L271,18 L271,26 L263,26 L263,18 Z M281,18 L289,18 L289,26 L281,26 L281,18 Z M299,18 L307,18 L307,26 L299,26 L299,18 Z M316,18 L324,18 L324,26 L316,26 L316,18 Z M394,18 L402,18 L402,26 L394,26 L394,18 Z M412,18 L420,18 L420,26 L412,26 L412,18 Z M246,35 L254,35 L254,43 L246,43 L246,35 Z M263,35 L271,35 L271,43 L263,43 L263,35 Z M281,35 L289,35 L289,43 L281,43 L281,35 Z M299,35 L307,35 L307,43 L299,43 L299,35 Z M246,53 L254,53 L254,61 L246,61 L246,53 Z M263,53 L271,53 L271,61 L263,61 L263,53 Z M246,70 L254,70 L254,78 L246,78 L246,70 Z M263,70 L271,70 L271,78 L263,78 L263,70 Z M263,88 L271,88 L271,96 L263,96 L263,88 Z M281,53 L289,53 L289,61 L281,61 L281,53 Z M299,53 L307,53 L307,61 L299,61 L299,53 Z M316,35 L324,35 L324,43 L316,43 L316,35 Z M343,123 L351,123 L351,131 L343,131 L343,123 Z M343,193 L351,193 L351,201 L343,201 L343,193 Z M343,210 L351,210 L351,218 L343,218 L343,210 Z M343,228 L351,228 L351,236 L343,236 L343,228 Z M360,193 L368,193 L368,201 L360,201 L360,193 Z M360,210 L368,210 L368,218 L360,218 L360,210 Z M360,228 L368,228 L368,236 L360,236 L360,228 Z M378,193 L386,193 L386,201 L378,201 L378,193 Z M378,210 L386,210 L386,218 L378,218 L378,210 Z M378,228 L386,228 L386,236 L378,236 L378,228 Z M394,193 L402,193 L402,201 L394,201 L394,193 Z M360,175 L368,175 L368,183 L360,183 L360,175 Z M378,175 L386,175 L386,183 L378,183 L378,175 Z M378,140 L386,140 L386,148 L378,148 L378,140 Z M378,123 L386,123 L386,131 L378,131 L378,123 Z M394,175 L402,175 L402,183 L394,183 L394,175 Z M394,210 L402,210 L402,218 L394,218 L394,210 Z M394,228 L402,228 L402,236 L394,236 L394,228 Z M394,263 L402,263 L402,271 L394,271 L394,263 Z M394,245 L402,245 L402,253 L394,253 L394,245 Z M394,281 L402,281 L402,289 L394,289 L394,281 Z M412,193 L420,193 L420,201 L412,201 L412,193 Z M412,175 L420,175 L420,183 L412,183 L412,175 Z M412,210 L420,210 L420,218 L412,218 L412,210 Z M412,228 L420,228 L420,236 L412,236 L412,228 Z M412,263 L420,263 L420,271 L412,271 L412,263 Z M412,245 L420,245 L420,253 L412,253 L412,245 Z M412,281 L420,281 L420,289 L412,289 L412,281 Z M429,193 L437,193 L437,201 L429,201 L429,193 Z M429,210 L437,210 L437,218 L429,218 L429,210 Z M429,228 L437,228 L437,236 L429,236 L429,228 Z M429,263 L437,263 L437,271 L429,271 L429,263 Z M429,245 L437,245 L437,253 L429,253 L429,245 Z M447,228 L455,228 L455,236 L447,236 L447,228 Z M465,228 L473,228 L473,236 L465,236 L465,228 Z M447,263 L455,263 L455,271 L447,271 L447,263 Z M447,245 L455,245 L455,253 L447,253 L447,245 Z M429,281 L437,281 L437,289 L429,289 L429,281 Z M465,299 L473,299 L473,307 L465,307 L465,299 Z M465,317 L473,317 L473,325 L465,325 L465,317 Z M412,299 L420,299 L420,307 L412,307 L412,299 Z M412,317 L420,317 L420,325 L412,325 L412,317 Z M394,70 L402,70 L402,78 L394,78 L394,70 Z M394,88 L402,88 L402,96 L394,96 L394,88 Z M394,123 L402,123 L402,131 L394,131 L394,123 Z M394,105 L402,105 L402,113 L394,113 L394,105 Z M394,140 L402,140 L402,148 L394,148 L394,140 Z M412,70 L420,70 L420,78 L412,78 L412,70 Z M412,88 L420,88 L420,96 L412,96 L412,88 Z M412,123 L420,123 L420,131 L412,131 L412,123 Z M412,105 L420,105 L420,113 L412,113 L412,105 Z M429,70 L437,70 L437,78 L429,78 L429,70 Z M429,88 L437,88 L437,96 L429,96 L429,88 Z M429,123 L437,123 L437,131 L429,131 L429,123 Z M429,105 L437,105 L437,113 L429,113 L429,105 Z M447,70 L455,70 L455,78 L447,78 L447,70 Z M447,88 L455,88 L455,96 L447,96 L447,88 Z M447,123 L455,123 L455,131 L447,131 L447,123 Z M465,140 L473,140 L473,148 L465,148 L465,140 Z M447,105 L455,105 L455,113 L447,113 L447,105 Z M465,70 L473,70 L473,78 L465,78 L465,70 Z M465,88 L473,88 L473,96 L465,96 L465,88 Z M465,123 L473,123 L473,131 L465,131 L465,123 Z M465,105 L473,105 L473,113 L465,113 L465,105 Z M482,70 L490,70 L490,78 L482,78 L482,70 Z M482,88 L490,88 L490,96 L482,96 L482,88 Z M482,123 L490,123 L490,131 L482,131 L482,123 Z M482,105 L490,105 L490,113 L482,113 L482,105 Z M500,70 L508,70 L508,78 L500,78 L500,70 Z M500,88 L508,88 L508,96 L500,96 L500,88 Z M500,123 L508,123 L508,131 L500,131 L500,123 Z M500,105 L508,105 L508,113 L500,113 L500,105 Z M517,70 L525,70 L525,78 L517,78 L517,70 Z M517,88 L525,88 L525,96 L517,96 L517,88 Z M517,123 L525,123 L525,131 L517,131 L517,123 Z M517,105 L525,105 L525,113 L517,113 L517,105 Z M535,70 L543,70 L543,78 L535,78 L535,70 Z M535,88 L543,88 L543,96 L535,96 L535,88 Z M535,123 L543,123 L543,131 L535,131 L535,123 Z M535,105 L543,105 L543,113 L535,113 L535,105 Z M552,70 L560,70 L560,78 L552,78 L552,70 Z M552,88 L560,88 L560,96 L552,96 L552,88 Z M552,123 L560,123 L560,131 L552,131 L552,123 Z M552,105 L560,105 L560,113 L552,113 L552,105 Z M570,70 L578,70 L578,78 L570,78 L570,70 Z M570,88 L578,88 L578,96 L570,96 L570,88 Z M570,123 L578,123 L578,131 L570,131 L570,123 Z M570,105 L578,105 L578,113 L570,113 L570,105 Z M587,70 L595,70 L595,78 L587,78 L587,70 Z M587,88 L595,88 L595,96 L587,96 L587,88 Z M587,123 L595,123 L595,131 L587,131 L587,123 Z M587,105 L595,105 L595,113 L587,113 L587,105 Z M605,70 L613,70 L613,78 L605,78 L605,70 Z M605,88 L613,88 L613,96 L605,96 L605,88 Z M605,123 L613,123 L613,131 L605,131 L605,123 Z M447,175 L455,175 L455,183 L447,183 L447,175 Z M465,175 L473,175 L473,183 L465,183 L465,175 Z M482,175 L490,175 L490,183 L482,183 L482,175 Z M500,175 L508,175 L508,183 L500,183 L500,175 Z M517,175 L525,175 L525,183 L517,183 L517,175 Z M535,175 L543,175 L543,183 L535,183 L535,175 Z M552,175 L560,175 L560,183 L552,183 L552,175 Z M570,175 L578,175 L578,183 L570,183 L570,175 Z M587,175 L595,175 L595,183 L587,183 L587,175 Z M605,175 L613,175 L613,183 L605,183 L605,175 Z M465,193 L473,193 L473,201 L465,201 L465,193 Z M482,193 L490,193 L490,201 L482,201 L482,193 Z M500,193 L508,193 L508,201 L500,201 L500,193 Z M517,193 L525,193 L525,201 L517,201 L517,193 Z M535,193 L543,193 L543,201 L535,201 L535,193 Z M535,210 L543,210 L543,218 L535,218 L535,210 Z M535,228 L543,228 L543,236 L535,236 L535,228 Z M552,193 L560,193 L560,201 L552,201 L552,193 Z M570,193 L578,193 L578,201 L570,201 L570,193 Z M587,193 L595,193 L595,201 L587,201 L587,193 Z M570,210 L578,210 L578,218 L570,218 L570,210 Z M587,210 L595,210 L595,218 L587,218 L587,210 Z M587,228 L595,228 L595,236 L587,236 L587,228 Z M587,245 L595,245 L595,253 L587,253 L587,245 Z M605,245 L613,245 L613,253 L605,253 L605,245 Z M622,245 L630,245 L630,253 L622,253 L622,245 Z M605,263 L613,263 L613,271 L605,271 L605,263 Z M622,263 L630,263 L630,271 L622,271 L622,263 Z M667,263 L675,263 L675,271 L667,271 L667,263 Z M684,263 L692,263 L692,271 L684,271 L684,263 Z M605,193 L613,193 L613,201 L605,201 L605,193 Z M605,105 L613,105 L613,113 L605,113 L605,105 Z M622,70 L630,70 L630,78 L622,78 L622,70 Z M622,88 L630,88 L630,96 L622,96 L622,88 Z M622,123 L630,123 L630,131 L622,131 L622,123 Z M622,105 L630,105 L630,113 L622,113 L622,105 Z M640,70 L648,70 L648,78 L640,78 L640,70 Z M640,88 L648,88 L648,96 L640,96 L640,88 Z M640,123 L648,123 L648,131 L640,131 L640,123 Z M500,140 L508,140 L508,148 L500,148 L500,140 Z M517,140 L525,140 L525,148 L517,148 L517,140 Z M535,140 L543,140 L543,148 L535,148 L535,140 Z M552,140 L560,140 L560,148 L552,148 L552,140 Z M570,140 L578,140 L578,148 L570,148 L570,140 Z M587,140 L595,140 L595,148 L587,148 L587,140 Z M605,140 L613,140 L613,148 L605,148 L605,140 Z M622,140 L630,140 L630,148 L622,148 L622,140 Z M640,140 L648,140 L648,148 L640,148 L640,140 Z M605,299 L613,299 L613,307 L605,307 L605,299 Z M622,299 L630,299 L630,307 L622,307 L622,299 Z M640,299 L648,299 L648,307 L640,307 L640,299 Z M658,299 L666,299 L666,307 L658,307 L658,299 Z M605,317 L613,317 L613,325 L605,325 L605,317 Z M622,317 L630,317 L630,325 L622,325 L622,317 Z M640,317 L648,317 L648,325 L640,325 L640,317 Z M658,317 L666,317 L666,325 L658,325 L658,317 Z M676,299 L684,299 L684,307 L676,307 L676,299 Z M676,317 L684,317 L684,325 L676,325 L676,317 Z M640,334 L648,334 L648,342 L640,342 L640,334 Z M658,334 L666,334 L666,342 L658,342 L658,334 Z M676,334 L684,334 L684,342 L676,342 L676,334 Z M694,334 L702,334 L702,342 L694,342 L694,334 Z M729,334 L737,334 L737,342 L729,342 L729,334 Z M729,352 L737,352 L737,360 L729,360 L729,352 Z M500,158 L508,158 L508,166 L500,166 L500,158 Z M517,158 L525,158 L525,166 L517,166 L517,158 Z M535,158 L543,158 L543,166 L535,166 L535,158 Z M552,158 L560,158 L560,166 L552,166 L552,158 Z M570,158 L578,158 L578,166 L570,166 L570,158 Z M587,158 L595,158 L595,166 L587,166 L587,158 Z M605,158 L613,158 L613,166 L605,166 L605,158 Z M622,158 L630,158 L630,166 L622,166 L622,158 Z M640,105 L648,105 L648,113 L640,113 L640,105 Z M658,70 L666,70 L666,78 L658,78 L658,70 Z M658,88 L666,88 L666,96 L658,96 L658,88 Z M658,123 L666,123 L666,131 L658,131 L658,123 Z M658,105 L666,105 L666,113 L658,113 L658,105 Z M676,70 L684,70 L684,78 L676,78 L676,70 Z M482,53 L490,53 L490,61 L482,61 L482,53 Z M500,53 L508,53 L508,61 L500,61 L500,53 Z M482,35 L490,35 L490,43 L482,43 L482,35 Z M500,35 L508,35 L508,43 L500,43 L500,35 Z M517,53 L525,53 L525,61 L517,61 L517,53 Z M535,53 L543,53 L543,61 L535,61 L535,53 Z M552,53 L560,53 L560,61 L552,61 L552,53 Z M570,53 L578,53 L578,61 L570,61 L570,53 Z M587,53 L595,53 L595,61 L587,61 L587,53 Z M552,35 L560,35 L560,43 L552,43 L552,35 Z M570,35 L578,35 L578,43 L570,43 L570,35 Z M570,18 L578,18 L578,26 L570,26 L570,18 Z M587,35 L595,35 L595,43 L587,43 L587,35 Z M605,53 L613,53 L613,61 L605,61 L605,53 Z M622,53 L630,53 L630,61 L622,61 L622,53 Z M640,53 L648,53 L648,61 L640,61 L640,53 Z M658,53 L666,53 L666,61 L658,61 L658,53 Z M676,53 L684,53 L684,61 L676,61 L676,53 Z M676,35 L684,35 L684,43 L676,43 L676,35 Z M676,88 L684,88 L684,96 L676,96 L676,88 Z M694,70 L702,70 L702,78 L694,78 L694,70 Z M694,88 L702,88 L702,96 L694,96 L694,88 Z M711,70 L719,70 L719,78 L711,78 L711,70 Z M711,88 L719,88 L719,96 L711,96 L711,88 Z M729,70 L737,70 L737,78 L729,78 L729,70 Z M746,70 L754,70 L754,78 L746,78 L746,70 Z M764,70 L772,70 L772,78 L764,78 L764,70 Z M729,88 L737,88 L737,96 L729,96 L729,88 Z M711,105 L719,105 L719,113 L711,113 L711,105 Z M413,140 L421,140 L421,148 L413,148 L413,140 Z M429,158 L437,158 L437,166 L429,166 L429,158 Z M447,158 L455,158 L455,166 L447,166 L447,158 Z M360,140 L368,140 L368,148 L360,148 L360,140 Z M360,105 L368,105 L368,113 L360,113 L360,105 Z" id="Shape" fill="#EA8E05" fill-rule="nonzero"></path>
                <g id="Group-2" transform="translate(760.000000, 149.000000)">
                    <g id="np_community_73516_000000">
                        <path d="M90.391791,52.8119116 C90.391791,61.0527459 78.0223881,61.0527459 78.0223881,52.8119116 C78.0223881,44.5602086 90.391791,44.5602086 90.391791,52.8119116" id="Shape" fill="#EA8E05" fill-rule="nonzero"></path>
                        <path d="M90.391791,197.438777 C90.391791,205.679612 78.0223881,205.679612 78.0223881,197.438777 C78.0223881,189.187074 90.391791,189.187074 90.391791,197.438777" id="Shape" fill="#EA8E05" fill-rule="nonzero"></path>
                        <path d="M62.7985075,168.889925 C62.7985075,175.867537 52.3320896,175.867537 52.3320896,168.889925 C52.3320896,161.912313 62.7985075,161.912313 62.7985075,168.889925" id="Shape" fill="#EA8E05" fill-rule="nonzero"></path>
                        <path d="M199.813433,36.6324627 C199.813433,43.6100746 189.347015,43.6100746 189.347015,36.6324627 C189.347015,29.6548507 199.813433,29.6548507 199.813433,36.6324627" id="Shape" fill="#EA8E05" fill-rule="nonzero"></path>
                        <path d="M176.977612,215.509056 C176.977612,222.492006 166.511194,222.492006 166.511194,215.509056 C166.511194,208.536782 176.977612,208.536782 176.977612,215.509056" id="Shape" fill="#EA8E05" fill-rule="nonzero"></path>
                        <path d="M97.0522388,225.979478 C97.0522388,232.95709 86.5858209,232.95709 86.5858209,225.979478 C86.5858209,219.001866 97.0522388,219.001866 97.0522388,225.979478" id="Shape" fill="#EA8E05" fill-rule="nonzero"></path>
                        <path d="M43.7686567,86.1100746 C43.7686567,93.0876866 33.3022388,93.0876866 33.3022388,86.1100746 C33.3022388,79.1324627 43.7686567,79.1324627 43.7686567,86.1100746" id="Shape" fill="#EA8E05" fill-rule="nonzero"></path>
                        <path d="M52.3320896,139.393657 C52.3320896,146.371269 41.8656716,146.371269 41.8656716,139.393657 C41.8656716,132.416045 52.3320896,132.416045 52.3320896,139.393657" id="Shape" fill="#EA8E05" fill-rule="nonzero"></path>
                        <path d="M215.037313,120.363806 C215.037313,127.341418 204.570896,127.341418 204.570896,120.363806 C204.570896,113.386194 215.037313,113.386194 215.037313,120.363806" id="Shape" fill="#EA8E05" fill-rule="nonzero"></path>
                        <path d="M145.578358,208.852612 C145.578358,215.830224 135.11194,215.830224 135.11194,208.852612 C135.11194,201.875 145.578358,201.875 145.578358,208.852612" id="Shape" fill="#EA8E05" fill-rule="nonzero"></path>
                        <path d="M137.014925,45.1958955 C137.014925,52.1735075 126.548507,52.1735075 126.548507,45.1958955 C126.548507,38.2182836 137.014925,38.2182836 137.014925,45.1958955" id="Shape" fill="#EA8E05" fill-rule="nonzero"></path>
                        <path d="M38.0597015,131.785792 C38.0597015,140.026626 25.6902985,140.026626 25.6902985,131.785792 C25.6902985,123.534089 38.0597015,123.534089 38.0597015,131.785792" id="Shape" fill="#EA8E05" fill-rule="nonzero"></path>
                        <path d="M206.473881,169.837342 C206.473881,178.089045 194.104478,178.089045 194.104478,169.837342 C194.104478,161.596508 206.473881,161.596508 206.473881,169.837342" id="Shape" fill="#EA8E05" fill-rule="nonzero"></path>
                        <path d="M71.3619403,49.9533582 C71.3619403,56.9309701 60.8955224,56.9309701 60.8955224,49.9533582 C60.8955224,42.9757463 71.3619403,42.9757463 71.3619403,49.9533582" id="Shape" fill="#EA8E05" fill-rule="nonzero"></path>
                        <path d="M211.231343,106.091418 C211.231343,111.800373 202.66791,111.800373 202.66791,106.091418 C202.66791,100.382463 211.231343,100.382463 211.231343,106.091418" id="Shape" fill="#EA8E05" fill-rule="nonzero"></path>
                        <path d="M216.940299,197.434701 C216.940299,203.143657 208.376866,203.143657 208.376866,197.434701 C208.376866,191.725746 216.940299,191.725746 216.940299,197.434701" id="Shape" fill="#EA8E05" fill-rule="nonzero"></path>
                        <path d="M86.5858209,214.561567 C86.5858209,220.270522 78.0223881,220.270522 78.0223881,214.561567 C78.0223881,208.852612 86.5858209,208.852612 86.5858209,214.561567" id="Shape" fill="#EA8E05" fill-rule="nonzero"></path>
                        <path d="M48.5261194,166.035448 C48.5261194,171.744403 39.9626866,171.744403 39.9626866,166.035448 C39.9626866,160.326493 48.5261194,160.326493 48.5261194,166.035448" id="Shape" fill="#EA8E05" fill-rule="nonzero"></path>
                        <path d="M128.451493,29.9720149 C128.451493,35.6809701 119.88806,35.6809701 119.88806,29.9720149 C119.88806,24.2630597 128.451493,24.2630597 128.451493,29.9720149" id="Shape" fill="#EA8E05" fill-rule="nonzero"></path>
                        <path d="M194.104478,49.9533582 C194.104478,56.9309701 183.63806,56.9309701 183.63806,49.9533582 C183.63806,42.9757463 194.104478,42.9757463 194.104478,49.9533582" id="Shape" fill="#EA8E05" fill-rule="nonzero"></path>
                        <path d="M52.3320896,126.068214 C52.3320896,133.051889 41.8656716,133.051889 41.8656716,126.068214 C41.8656716,119.096665 52.3320896,119.096665 52.3320896,126.068214" id="Shape" fill="#EA8E05" fill-rule="nonzero"></path>
                        <path d="M116.08209,210.284199 C116.08209,224.233625 95.1492537,224.233625 95.1492537,210.284199 C95.1492537,196.323177 116.08209,196.323177 116.08209,210.284199" id="Shape" fill="#EA8E05" fill-rule="nonzero"></path>
                        <path d="M180.783582,53.2792335 C180.783582,67.2402555 159.850746,67.2402555 159.850746,53.2792335 C159.850746,39.3298077 180.783582,39.3298077 180.783582,53.2792335" id="Shape" fill="#EA8E05" fill-rule="nonzero"></path>
                        <path d="M57.0895522,182.210821 C57.0895522,186.651119 50.4291045,186.651119 50.4291045,182.210821 C50.4291045,177.770522 57.0895522,177.770522 57.0895522,182.210821" id="Shape" fill="#EA8E05" fill-rule="nonzero"></path>
                        <path d="M164.608209,220.270522 C164.608209,224.710821 157.947761,224.710821 157.947761,220.270522 C157.947761,215.830224 164.608209,215.830224 164.608209,220.270522" id="Shape" fill="#EA8E05" fill-rule="nonzero"></path>
                        <path d="M230.261194,166.98694 C230.261194,171.427239 223.600746,171.427239 223.600746,166.98694 C223.600746,162.546642 230.261194,162.546642 230.261194,166.98694" id="Shape" fill="#EA8E05" fill-rule="nonzero"></path>
                        <path d="M230.261194,73.7406716 C230.261194,78.1809701 223.600746,78.1809701 223.600746,73.7406716 C223.600746,69.3003731 230.261194,69.3003731 230.261194,73.7406716" id="Shape" fill="#EA8E05" fill-rule="nonzero"></path>
                        <path d="M173.171642,37.5879372 C173.171642,42.0229264 166.511194,42.0229264 166.511194,37.5879372 C166.511194,33.1423294 173.171642,33.1423294 173.171642,37.5879372" id="Shape" fill="#EA8E05" fill-rule="nonzero"></path>
                        <path d="M137.014925,32.8304745 C137.014925,37.2654637 130.354478,37.2654637 130.354478,32.8304745 C130.354478,28.3848667 137.014925,28.3848667 137.014925,32.8304745" id="Shape" fill="#EA8E05" fill-rule="nonzero"></path>
                        <path d="M67.5559701,70.890176 C67.5559701,75.3251652 60.8955224,75.3251652 60.8955224,70.890176 C60.8955224,66.4445682 67.5559701,66.4445682 67.5559701,70.890176" id="Shape" fill="#EA8E05" fill-rule="nonzero"></path>
                        <path d="M82.7798507,224.072511 C82.7798507,228.518118 76.119403,228.518118 76.119403,224.072511 C76.119403,219.637521 82.7798507,219.637521 82.7798507,224.072511" id="Shape" fill="#EA8E05" fill-rule="nonzero"></path>
                        <path d="M3.80597015,76.119403 C3.80597015,78.6567164 0,78.6567164 0,76.119403 C0,73.5820896 3.80597015,73.5820896 3.80597015,76.119403" id="Shape" fill="#EA8E05" fill-rule="nonzero"></path>
                        <path d="M255,146.529851 C255,149.067164 251.19403,149.067164 251.19403,146.529851 C251.19403,143.992537 255,143.992537 255,146.529851" id="Shape" fill="#EA8E05" fill-rule="nonzero"></path>
                        <path d="M41.8656716,1.90298507 C41.8656716,4.44029851 38.0597015,4.44029851 38.0597015,1.90298507 C38.0597015,-0.634328358 41.8656716,-0.634328358 41.8656716,1.90298507" id="Shape" fill="#EA8E05" fill-rule="nonzero"></path>
                        <path d="M39.9626866,246.436567 C39.9626866,248.973881 36.1567164,248.973881 36.1567164,246.436567 C36.1567164,243.899254 39.9626866,243.899254 39.9626866,246.436567" id="Shape" fill="#EA8E05" fill-rule="nonzero"></path>
                        <path d="M144.626866,218.839014 C144.626866,221.38202 140.820896,221.38202 140.820896,218.839014 C140.820896,216.307393 144.626866,216.307393 144.626866,218.839014" id="Shape" fill="#EA8E05" fill-rule="nonzero"></path>
                        <path d="M220.746269,136.059163 C220.746269,138.602169 216.940299,138.602169 216.940299,136.059163 C216.940299,133.527543 220.746269,133.527543 220.746269,136.059163" id="Shape" fill="#EA8E05" fill-rule="nonzero"></path>
                        <path d="M147.481343,19.0298507 C147.481343,21.5671642 143.675373,21.5671642 143.675373,19.0298507 C143.675373,16.4925373 147.481343,16.4925373 147.481343,19.0298507" id="Shape" fill="#EA8E05" fill-rule="nonzero"></path>
                        <path d="M29.4962687,146.529851 C29.4962687,149.067164 25.6902985,149.067164 25.6902985,146.529851 C25.6902985,143.992537 29.4962687,143.992537 29.4962687,146.529851" id="Shape" fill="#EA8E05" fill-rule="nonzero"></path>
                        <path d="M73.2649254,199.809163 C73.2649254,202.352169 69.4589552,202.352169 69.4589552,199.809163 C69.4589552,197.277543 73.2649254,197.277543 73.2649254,199.809163" id="Shape" fill="#EA8E05" fill-rule="nonzero"></path>
                        <path d="M180.783582,248.335283 C180.783582,250.878289 176.977612,250.878289 176.977612,248.335283 C176.977612,245.803662 180.783582,245.803662 180.783582,248.335283" id="Shape" fill="#EA8E05" fill-rule="nonzero"></path>
                        <path d="M134.160448,22.838851 C134.160448,25.3721243 130.354478,25.3721243 130.354478,22.838851 C130.354478,20.2974974 134.160448,20.2974974 134.160448,22.838851" id="Shape" fill="#EA8E05" fill-rule="nonzero"></path>
                        <path d="M239.776119,184.586522 C239.776119,187.127876 235.970149,187.127876 235.970149,184.586522 C235.970149,182.053249 239.776119,182.053249 239.776119,184.586522" id="Shape" fill="#EA8E05" fill-rule="nonzero"></path>
                        <path d="M56.1380597,189.350045 C56.1380597,191.883318 52.3320896,191.883318 52.3320896,189.350045 C52.3320896,186.808691 56.1380597,186.808691 56.1380597,189.350045" id="Shape" fill="#EA8E05" fill-rule="nonzero"></path>
                        <path d="M45.6716418,74.219448 C45.6716418,76.7527213 41.8656716,76.7527213 41.8656716,74.219448 C41.8656716,71.6780944 45.6716418,71.6780944 45.6716418,74.219448" id="Shape" fill="#EA8E05" fill-rule="nonzero"></path>
                        <path d="M144.626866,33.3052689 C144.626866,35.8385422 140.820896,35.8385422 140.820896,33.3052689 C140.820896,30.7639153 144.626866,30.7639153 144.626866,33.3052689" id="Shape" fill="#EA8E05" fill-rule="nonzero"></path>
                        <path d="M208.376866,133.211985 C208.376866,135.745259 204.570896,135.745259 204.570896,133.211985 C204.570896,130.670632 208.376866,130.670632 208.376866,133.211985" id="Shape" fill="#EA8E05" fill-rule="nonzero"></path>
                        <path d="M58.9925373,205.525418 C58.9925373,208.058691 55.1865672,208.058691 55.1865672,205.525418 C55.1865672,202.984065 58.9925373,202.984065 58.9925373,205.525418" id="Shape" fill="#EA8E05" fill-rule="nonzero"></path>
                        <path d="M197.910448,70.4062506 C197.910448,81.8297573 180.783582,81.8297573 180.783582,70.4062506 C180.783582,58.9939364 197.910448,58.9939364 197.910448,70.4062506" id="Shape" fill="#EA8E05" fill-rule="nonzero"></path>
                        <path d="M84.6828358,25.2184492 C84.6828358,30.9222085 76.119403,30.9222085 76.119403,25.2184492 C76.119403,19.504298 84.6828358,19.504298 84.6828358,25.2184492" id="Shape" fill="#EA8E05" fill-rule="nonzero"></path>
                        <path d="M32.3507463,82.3086528 C32.3507463,86.7428869 25.6902985,86.7428869 25.6902985,82.3086528 C25.6902985,77.8622898 32.3507463,77.8622898 32.3507463,82.3086528" id="Shape" fill="#EA8E05" fill-rule="nonzero"></path>
                        <path d="M176.977612,234.538362 C176.977612,238.984725 170.317164,238.984725 170.317164,234.538362 C170.317164,230.104128 176.977612,230.104128 176.977612,234.538362" id="Shape" fill="#EA8E05" fill-rule="nonzero"></path>
                        <path d="M78.0223881,64.2296432 C78.0223881,69.9334025 69.4589552,69.9334025 69.4589552,64.2296432 C69.4589552,58.5154921 78.0223881,58.5154921 78.0223881,64.2296432" id="Shape" fill="#EA8E05" fill-rule="nonzero"></path>
                        <path d="M216.940299,167.934536 C216.940299,173.648687 208.376866,173.648687 208.376866,167.934536 C208.376866,162.230777 216.940299,162.230777 216.940299,167.934536" id="Shape" fill="#EA8E05" fill-rule="nonzero"></path>
                        <path d="M20.9328358,142.244237 C20.9328358,147.958389 12.369403,147.958389 12.369403,142.244237 C12.369403,136.540478 20.9328358,136.540478 20.9328358,142.244237" id="Shape" fill="#EA8E05" fill-rule="nonzero"></path>
                        <path d="M228.358209,92.7662759 C228.358209,97.2122364 221.697761,97.2122364 221.697761,92.7662759 C221.697761,88.3316394 228.358209,88.3316394 228.358209,92.7662759" id="Shape" fill="#EA8E05" fill-rule="nonzero"></path>
                        <path d="M200.764925,84.211336 C200.764925,88.6459726 194.104478,88.6459726 194.104478,84.211336 C194.104478,79.7653755 200.764925,79.7653755 200.764925,84.211336" id="Shape" fill="#EA8E05" fill-rule="nonzero"></path>
                        <path d="M223.600746,177.449112 C223.600746,181.895072 216.940299,181.895072 216.940299,177.449112 C216.940299,173.014475 223.600746,173.014475 223.600746,177.449112" id="Shape" fill="#EA8E05" fill-rule="nonzero"></path>
                        <path d="M117.985075,241.203358 C117.985075,245.643657 111.324627,245.643657 111.324627,241.203358 C111.324627,236.76306 117.985075,236.76306 117.985075,241.203358" id="Shape" fill="#EA8E05" fill-rule="nonzero"></path>
                        <path d="M39.9626866,146.049858 C39.9626866,150.495818 33.3022388,150.495818 33.3022388,146.049858 C33.3022388,141.615221 39.9626866,141.615221 39.9626866,146.049858" id="Shape" fill="#EA8E05" fill-rule="nonzero"></path>
                        <path d="M67.5559701,37.5839552 C67.5559701,42.0242537 60.8955224,42.0242537 60.8955224,37.5839552 C60.8955224,33.1436567 67.5559701,33.1436567 67.5559701,37.5839552" id="Shape" fill="#EA8E05" fill-rule="nonzero"></path>
                        <path d="M105.615672,18.558351 C105.615672,22.9929875 98.9552239,22.9929875 98.9552239,18.558351 C98.9552239,14.1123905 105.615672,14.1123905 105.615672,18.558351" id="Shape" fill="#EA8E05" fill-rule="nonzero"></path>
                        <path d="M206.473881,93.7220149 C206.473881,99.4309701 197.910448,99.4309701 197.910448,93.7220149 C197.910448,88.0130597 206.473881,88.0130597 206.473881,93.7220149" id="Shape" fill="#EA8E05" fill-rule="nonzero"></path>
                        <path d="M119.88806,47.1027775 C119.88806,52.8065368 111.324627,52.8065368 111.324627,47.1027775 C111.324627,41.3886264 119.88806,41.3886264 119.88806,47.1027775" id="Shape" fill="#EA8E05" fill-rule="nonzero"></path>
                        <path d="M34.2537313,198.386194 C34.2537313,202.826493 27.5932836,202.826493 27.5932836,198.386194 C27.5932836,193.945896 34.2537313,193.945896 34.2537313,198.386194" id="Shape" fill="#EA8E05" fill-rule="nonzero"></path>
                        <path d="M63.75,83.7313433 C63.75,93.880597 48.5261194,93.880597 48.5261194,83.7313433 C48.5261194,73.5820896 63.75,73.5820896 63.75,83.7313433" id="Shape" fill="#EA8E05" fill-rule="nonzero"></path>
                        <path d="M81.8283582,39.4869403 C81.8283582,46.4645522 71.3619403,46.4645522 71.3619403,39.4869403 C71.3619403,32.5093284 81.8283582,32.5093284 81.8283582,39.4869403" id="Shape" fill="#EA8E05" fill-rule="nonzero"></path>
                        <path d="M138.91791,222.169338 C138.91791,229.152509 128.451493,229.152509 128.451493,222.169338 C128.451493,215.197285 138.91791,215.197285 138.91791,222.169338" id="Shape" fill="#EA8E05" fill-rule="nonzero"></path>
                        <path d="M33.3022388,111.800373 C33.3022388,118.777985 22.8358209,118.777985 22.8358209,111.800373 C22.8358209,104.822761 33.3022388,104.822761 33.3022388,111.800373" id="Shape" fill="#EA8E05" fill-rule="nonzero"></path>
                        <path d="M216.940299,86.1100746 C216.940299,93.0876866 206.473881,93.0876866 206.473881,86.1100746 C206.473881,79.1324627 216.940299,79.1324627 216.940299,86.1100746" id="Shape" fill="#EA8E05" fill-rule="nonzero"></path>
                        <path d="M166.511194,207.429784 C166.511194,217.573157 151.287313,217.573157 151.287313,207.429784 C151.287313,197.274649 166.511194,197.274649 166.511194,207.429784" id="Shape" fill="#EA8E05" fill-rule="nonzero"></path>
                        <path d="M156.044776,47.5702212 C156.044776,57.7253491 140.820896,57.7253491 140.820896,47.5702212 C140.820896,37.4268417 156.044776,37.4268417 156.044776,47.5702212" id="Shape" fill="#EA8E05" fill-rule="nonzero"></path>
                        <path d="M76.119403,184.593749 C76.119403,196.006064 58.9925373,196.006064 58.9925373,184.593749 C58.9925373,173.170243 76.119403,173.170243 76.119403,184.593749" id="Shape" fill="#EA8E05" fill-rule="nonzero"></path>
                        <path d="M219.794776,151.291511 C219.794776,162.703825 202.66791,162.703825 202.66791,151.291511 C202.66791,139.868004 219.794776,139.868004 219.794776,151.291511" id="Shape" fill="#EA8E05" fill-rule="nonzero"></path>
                        <path d="M189.347015,199.809084 C189.347015,213.770106 168.414179,213.770106 168.414179,199.809084 C168.414179,185.859658 189.347015,185.859658 189.347015,199.809084" id="Shape" fill="#EA8E05" fill-rule="nonzero"></path>
                        <path d="M57.0895522,106.571513 C57.0895522,120.520939 36.1567164,120.520939 36.1567164,106.571513 C36.1567164,92.6104908 57.0895522,92.6104908 57.0895522,106.571513" id="Shape" fill="#EA8E05" fill-rule="nonzero"></path>
                        <path d="M166.511194,21.4085821 C166.511194,27.1175373 157.947761,27.1175373 157.947761,21.4085821 C157.947761,15.6996269 166.511194,15.6996269 166.511194,21.4085821" id="Shape" fill="#EA8E05" fill-rule="nonzero"></path>
                        <path d="M128.451493,210.759688 C128.451493,216.463189 119.88806,216.463189 119.88806,210.759688 C119.88806,205.045278 128.451493,205.045278 128.451493,210.759688" id="Shape" fill="#EA8E05" fill-rule="nonzero"></path>
                        <path d="M27.5932836,44.2484937 C27.5932836,49.9519946 19.0298507,49.9519946 19.0298507,44.2484937 C19.0298507,38.5340842 27.5932836,38.5340842 27.5932836,44.2484937" id="Shape" fill="#EA8E05" fill-rule="nonzero"></path>
                        <path d="M97.0522388,250.714193 C97.0522388,256.428602 88.488806,256.428602 88.488806,250.714193 C88.488806,245.010692 97.0522388,245.010692 97.0522388,250.714193" id="Shape" fill="#EA8E05" fill-rule="nonzero"></path>
                        <path d="M212.182836,98.0070356 C212.182836,100.539943 208.376866,100.539943 208.376866,98.0070356 C208.376866,95.4653165 212.182836,95.4653165 212.182836,98.0070356" id="Shape" fill="#EA8E05" fill-rule="nonzero"></path>
                        <path d="M199.813433,57.0928565 C199.813433,59.6257643 196.007463,59.6257643 196.007463,57.0928565 C196.007463,54.5511374 199.813433,54.5511374 199.813433,57.0928565" id="Shape" fill="#EA8E05" fill-rule="nonzero"></path>
                        <path d="M215.037313,179.351796 C215.037313,186.335471 204.570896,186.335471 204.570896,179.351796 C204.570896,172.380247 215.037313,172.380247 215.037313,179.351796" id="Shape" fill="#EA8E05" fill-rule="nonzero"></path>
                        <path d="M222.649254,184.589552 C222.649254,187.126866 218.843284,187.126866 218.843284,184.589552 C218.843284,182.052239 222.649254,182.052239 222.649254,184.589552" id="Shape" fill="#EA8E05" fill-rule="nonzero"></path>
                        <path d="M239.776119,127.5 C239.776119,130.037313 235.970149,130.037313 235.970149,127.5 C235.970149,124.962687 239.776119,124.962687 239.776119,127.5" id="Shape" fill="#EA8E05" fill-rule="nonzero"></path>
                        <path d="M222.649254,156.992964 C222.649254,159.534684 218.843284,159.534684 218.843284,156.992964 C218.843284,154.460057 222.649254,154.460057 222.649254,156.992964" id="Shape" fill="#EA8E05" fill-rule="nonzero"></path>
                        <path d="M62.7985075,58.9892331 C62.7985075,61.5309522 58.9925373,61.5309522 58.9925373,58.9892331 C58.9925373,56.4563253 62.7985075,56.4563253 62.7985075,58.9892331" id="Shape" fill="#EA8E05" fill-rule="nonzero"></path>
                        <path d="M117.985075,5.70565099 C117.985075,8.24737007 114.179104,8.24737007 114.179104,5.70565099 C114.179104,3.1727432 117.985075,3.1727432 117.985075,5.70565099" id="Shape" fill="#EA8E05" fill-rule="nonzero"></path>
                        <path d="M75.1679104,205.522388 C75.1679104,208.059701 71.3619403,208.059701 71.3619403,205.522388 C71.3619403,202.985075 75.1679104,202.985075 75.1679104,205.522388" id="Shape" fill="#EA8E05" fill-rule="nonzero"></path>
                        <path d="M113.227612,231.684357 C113.227612,239.93606 100.858209,239.93606 100.858209,231.684357 C100.858209,223.443523 113.227612,223.443523 113.227612,231.684357" id="Shape" fill="#EA8E05" fill-rule="nonzero"></path>
                        <path d="M124.645522,221.222015 C124.645522,226.93097 116.08209,226.93097 116.08209,221.222015 C116.08209,215.51306 124.645522,215.51306 124.645522,221.222015" id="Shape" fill="#EA8E05" fill-rule="nonzero"></path>
                        <path d="M121.791045,231.209382 C121.791045,233.751101 117.985075,233.751101 117.985075,231.209382 C117.985075,228.676475 121.791045,228.676475 121.791045,231.209382" id="Shape" fill="#EA8E05" fill-rule="nonzero"></path>
                        <path d="M180.783582,237.876439 C180.783582,240.409346 176.977612,240.409346 176.977612,237.876439 C176.977612,235.334719 180.783582,235.334719 180.783582,237.876439" id="Shape" fill="#EA8E05" fill-rule="nonzero"></path>
                        <path d="M37.108209,118.936567 C37.108209,121.473881 33.3022388,121.473881 33.3022388,118.936567 C33.3022388,116.399254 37.108209,116.399254 37.108209,118.936567" id="Shape" fill="#EA8E05" fill-rule="nonzero"></path>
                        <path d="M216.940299,22.3555274 C216.940299,29.3392023 206.473881,29.3392023 206.473881,22.3555274 C206.473881,15.3839784 216.940299,15.3839784 216.940299,22.3555274" id="Shape" fill="#EA8E05" fill-rule="nonzero"></path>
                        <path d="M185.541045,38.5315508 C185.541045,44.245702 176.977612,44.245702 176.977612,38.5315508 C176.977612,32.8277915 185.541045,32.8277915 185.541045,38.5315508" id="Shape" fill="#EA8E05" fill-rule="nonzero"></path>
                        <path d="M201.716418,14.2723881 C201.716418,16.8097015 197.910448,16.8097015 197.910448,14.2723881 C197.910448,11.7350746 201.716418,11.7350746 201.716418,14.2723881" id="Shape" fill="#EA8E05" fill-rule="nonzero"></path>
                        <path d="M193.152985,127.5 C193.152985,163.756902 163.969917,193.152985 127.975746,193.152985 C91.9815753,193.152985 62.7985075,163.756902 62.7985075,127.5 C62.7985075,91.2430978 91.9815753,61.8470149 127.975746,61.8470149 C163.969917,61.8470149 193.152985,91.2430978 193.152985,127.5" id="Shape" fill="#EA8E05" fill-rule="nonzero"></path>
                        <g id="Amplify-Logo" transform="translate(93.964161, 99.941108)" fill="#FF9900">
                            <g id="Group">
                                <path d="M13.554548,25.4028956 L19.2347838,16.1183488 L24.1115891,24.0952451 L14.6068163,39.6309676 L33.6094209,39.6309676 L38.466097,47.5746269 L0,47.5746269 L13.554548,25.4028956 Z M21.7977442,11.9195947 L26.4801992,4.26073145 L52.9802152,47.5744965 L43.5955231,47.5744965 L21.7977442,11.9195947 Z M29.0864026,0 L38.4586007,0 L67.5559701,47.5746269 L58.1719722,47.5746269 L29.0864026,0 Z" id="Fill-1"></path>
                                <polygon id="Fill-1" points="0 48.5261194 38.0597015 48.5261194 33.2543362 39.9626866 14.4524948 39.9626866"></polygon>
                            </g>
                        </g>
                    </g>
                </g>
            </g>
        </g>
    </g>
</svg>