<svg width="22" height="22" viewBox="0 0 22 22" fill="none" xmlns="http://www.w3.org/2000/svg">
<path d="M11.9937 1.74093L20.1422 1.74094M20.1422 1.74094L20.1422 9.88941M20.1422 1.74094L11.9937 9.88942" stroke="white" stroke-width="2" stroke-linecap="round"/>
<path d="M21.1667 15.1666C21.1667 14.6143 20.719 14.1666 20.1667 14.1666C19.6144 14.1666 19.1667 14.6143 19.1667 15.1666H21.1667ZM6.83337 2.83325C7.38566 2.83325 7.83337 2.38554 7.83337 1.83325C7.83337 1.28097 7.38566 0.833252 6.83337 0.833252V2.83325ZM19.1667 15.1666V16.8333H21.1667V15.1666H19.1667ZM16.8334 19.1666H5.16671V21.1666H16.8334V19.1666ZM5.16671 19.1666C3.87804 19.1666 2.83337 18.1219 2.83337 16.8333H0.833374C0.833374 19.2265 2.77347 21.1666 5.16671 21.1666V19.1666ZM19.1667 16.8333C19.1667 18.1219 18.122 19.1666 16.8334 19.1666V21.1666C19.2266 21.1666 21.1667 19.2265 21.1667 16.8333H19.1667ZM5.16671 2.83325H6.83337V0.833252H5.16671V2.83325ZM2.83337 5.16658C2.83337 3.87792 3.87804 2.83325 5.16671 2.83325V0.833252C2.77347 0.833252 0.833374 2.77335 0.833374 5.16658H2.83337ZM2.83337 16.8333V5.16658H0.833374V16.8333H2.83337Z" fill="white"/>
</svg>
